<svg xmlns="http://www.w3.org/2000/svg" viewBox="-16489 -13294 96.031 90.801"><defs><style>.a{fill:#bccd13;}.b{fill:#616f26;}.c{fill:#fff;}.d{fill:#617025;}.e{fill:#ffcc04;}</style></defs><g transform="translate(-16501.7 -13304.6)"><g transform="translate(12.7 10.6)"><g transform="translate(2.274 2.362)"><circle class="a" cx="43.126" cy="43.126" r="43.126"/></g><g transform="translate(2.274 2.362)"><path class="b" d="M58.426,14.525a41.9,41.9,0,1,1-41.9,41.9,41.962,41.962,0,0,1,41.9-41.9m0-1.225a43.126,43.126,0,1,0,43.126,43.126A43.157,43.157,0,0,0,58.426,13.3Z" transform="translate(-15.3 -13.3)"/></g><path class="b" d="M58.1,12.962A43.126,43.126,0,1,1,14.974,56.088,43.157,43.157,0,0,1,58.1,12.962m0-2.362A45.4,45.4,0,1,0,103.5,56,45.472,45.472,0,0,0,58.1,10.6Z" transform="translate(-12.7 -10.6)"/><g transform="translate(1.137 1.225)"><path class="c" d="M58.263,13.137A43.126,43.126,0,1,1,15.137,56.263,43.157,43.157,0,0,1,58.263,13.137m0-1.137a44.263,44.263,0,1,0,44.263,44.263A44.314,44.314,0,0,0,58.263,12Z" transform="translate(-14 -12)"/></g></g><g transform="translate(22.847 20.835)"><g transform="translate(2.362 2.362)"><circle class="a" cx="32.891" cy="32.891" r="32.891"/></g><g transform="translate(2.362 2.362)"><path class="b" d="M59.891,26.137A31.666,31.666,0,1,1,28.225,57.8,31.714,31.714,0,0,1,59.891,26.137m0-1.137A32.891,32.891,0,1,0,92.782,57.891,32.853,32.853,0,0,0,59.891,25Z" transform="translate(-27 -25)"/></g><path class="d" d="M59.553,24.662A32.891,32.891,0,1,1,26.662,57.553,32.853,32.853,0,0,1,59.553,24.662m0-2.362A35.253,35.253,0,1,0,94.806,57.553,35.317,35.317,0,0,0,59.553,22.3Z" transform="translate(-24.3 -22.3)"/><g transform="translate(1.225 1.137)"><path class="c" d="M59.728,24.825A32.891,32.891,0,1,1,26.837,57.716,32.853,32.853,0,0,1,59.728,24.825m0-1.225A34.028,34.028,0,1,0,93.757,57.628,34.066,34.066,0,0,0,59.728,23.6Z" transform="translate(-25.7 -23.6)"/></g><g transform="translate(7.67 8.748)"><path class="c" d="M84.969,60.9c0,.262.35.7.35.962-.087,1.662,2.449,8.66,2.1,10.235-.087.437-4.2-1.924-4.461-1.487-4.2,9.185-11.284,14.346-22.044,14.346-10.41,0-17.408-7.261-22.919-12.772a21.038,21.038,0,0,1-2.1-1.837c-.087-.262-3.149-2.449-2.8-2.449,2.012-.7,3.936-.525,4.374-1.662.525-1.4-.7-4.024-.7-5.336,0-11.9,8.923-20.295,20.032-24.756.962-.35,5.336-3.849,6.386-3.849.35,0-.35,2.8,0,2.8.7,0-.962,1.662-.35,1.75A24.249,24.249,0,0,1,84.969,60.9Z" transform="translate(-33.068 -32.3)"/></g><g transform="translate(7.61 8.835)"><path class="c" d="M50.145,39.835l12.946,7.785V43.16l5.161,1.4L73.064,47.8l3.062,3.674L78.4,56.981l.437,3.587V62.4l-2.712,2.1-2.537,1.837-.7.962,4.2,1.4-.962,1.75-4.2,4.636-3.5,1.837-2.887,1.137-3.324.787H57.668l-3.324-1.225-3.761-2.012-3.5-3.149L45.946,70.8l1.487-7.873L43.322,64.5l-.35-2.8,1.05-7.348,3.412-4.811,2.449-2.712,5.6-2.974-.612-.7-5.336-3.324-2.274,1.312L43.41,44.472l-2.624,3.237-2.1,3.237-1.137,4.024-.525,5.6.175,4.549.262,1.312L33,67.915,44.634,78.587l2.1,1.75,6.561,3.412,5.686,1.487,6.736-.7,5.948-1.75,4.9-3.587L81.9,72.727l1.137-2.012,4.286,1.4-1.487-8.66-1.225-6.473-1.75-5.948L79.45,45.7,74.989,41.41l-4.2-2.362-4.636-1.312-2.8-.7L62.917,32.4l-3.149,1.837L51.02,39.311Z" transform="translate(-33 -32.4)"/></g><g transform="translate(30.529 19.945)"><path class="a" d="M61.737,46.5C60.25,49.736,59.2,55.51,59.2,62.158c0,10.147,2.362,18.283,5.249,18.283S69.7,72.218,69.7,62.158c0-7.785-1.4-14.434-3.324-17.058h0l-.262.087.262,3.587a32.566,32.566,0,0,1,.875,3.237,51.6,51.6,0,0,1,.875,10.147,48.928,48.928,0,0,1-1.4,12.159c-.962,3.5-2.012,4.461-2.274,4.549-.262-.087-1.312-.962-2.274-4.549a49.445,49.445,0,0,1-1.4-12.159c0-5.773.787-11.109,2.1-14.346l.875-.262Z" transform="translate(-59.2 -45.1)"/></g><g transform="translate(17.583 36.565)"><rect class="a" width="35.865" height="1.575"/></g><g transform="translate(20.12 44.525)"><rect class="a" width="32.191" height="1.575"/></g><g transform="translate(18.632 28.605)"><rect class="a" width="33.591" height="1.575"/></g><g transform="translate(17.583 36.303)"><rect class="b" width="36.478" height="1.05"/></g><g transform="translate(20.994 44.263)"><rect class="b" width="30.179" height="1.05"/></g><g transform="translate(19.595 28.342)"><rect class="b" width="31.754" height="1.05"/></g><g transform="translate(7.61 14.609)"><path class="a" d="M51.37,41.449c.262-.087.525-.262.787-.35h0m1.312,2.012.262.437A19.877,19.877,0,0,0,47,47.923,19.377,19.377,0,0,0,41.31,61.744a18.538,18.538,0,0,0,.35,3.849l.35,1.75,1.75-.612,1.575-.525L43.41,75.653l-7.261-6.386,1.75-.612,1.4-.437-.35-1.4a31.118,31.118,0,0,1-.525-5.074A22.958,22.958,0,0,1,40.173,53a22.022,22.022,0,0,1,4.811-7.173,22.872,22.872,0,0,1,6.3-4.461l.787-.35L53.207,39.7,52.77,39h0c-.35.175-.875.35-1.225.525a23.924,23.924,0,0,0-7.61,5.161,24.936,24.936,0,0,0-5.161,7.61,24.538,24.538,0,0,0-1.924,9.36,23.657,23.657,0,0,0,.612,5.511L33,68.742,44.459,78.889l3.062-14.958-4.2,1.4a15.834,15.834,0,0,1-.35-3.5,17.725,17.725,0,0,1,5.249-12.684,17.414,17.414,0,0,1,8.048-4.636l-.437-.612Z" transform="translate(-33 -39)"/></g><g transform="translate(16.708 33.678)"><path class="a" d="M84.6,63.774l1.924,9.447-1.75-.612-1.487-.35-.612,1.312a20.249,20.249,0,0,1-2.449,4.2,21.312,21.312,0,0,1-4.9,4.811,22.5,22.5,0,0,1-26.418,0,24.4,24.4,0,0,1-2.8-2.449l-.437,1.137-2.1-2.1-.175.262a22.851,22.851,0,0,0,4.636,4.549,23.976,23.976,0,0,0,28.342,0A24.059,24.059,0,0,0,81.54,78.82a21.251,21.251,0,0,0,2.624-4.549l4.461,1.487L85.564,60.8h0L74.192,70.86l4.2,1.4A18.1,18.1,0,0,1,72.792,79a17.583,17.583,0,0,1-10.585,3.412A18.181,18.181,0,0,1,51.623,79a16.961,16.961,0,0,1-4.374-4.636l-.35.437.35,2.187a20.49,20.49,0,0,0,3.5,3.237,19.6,19.6,0,0,0,23.094,0,19.88,19.88,0,0,0,6.123-7.348l.787-1.662L79,70.6l-1.575-.525,7.173-6.3" transform="translate(-43.4 -60.8)"/></g><g transform="translate(6.648 14.259)"><path class="b" d="M44.672,79.8,31.9,68.429l4.811-1.662a24.651,24.651,0,0,1,1.4-14.609,23.53,23.53,0,0,1,5.249-7.785,24.459,24.459,0,0,1,7.785-5.249c.35-.175.875-.35,1.312-.525l.35,1.05c-.35.175-.875.35-1.225.525a22.934,22.934,0,0,0-7.435,5.074,23.907,23.907,0,0,0-5.074,7.435,22.432,22.432,0,0,0-1.837,9.01,21.716,21.716,0,0,0,.612,5.336l.087.437-4.024,1.312,10.06,8.835,2.712-13.121-3.936,1.312-.087-.612a17.428,17.428,0,0,1-.35-3.674,18.336,18.336,0,0,1,5.424-13.034,18.942,18.942,0,0,1,8.31-4.811l.262,1.05a17.18,17.18,0,0,0-7.785,4.549,17.7,17.7,0,0,0-5.161,12.422,14.478,14.478,0,0,0,.262,2.8l4.461-1.487Z" transform="translate(-31.9 -38.6)"/></g><g transform="translate(24.493 8.923)"><path class="a" d="M63.934,35.124v3.412l1.487.175a22.5,22.5,0,0,1,20.207,19.42l.787-.612L87.2,60.58l.262-.087a23.573,23.573,0,0,0-1.924-8.835,23.924,23.924,0,0,0-5.161-7.61,24.936,24.936,0,0,0-7.61-5.161,22.125,22.125,0,0,0-7.173-1.75V32.5h0L52.3,39.935l13.209,7.61V43.085a18.057,18.057,0,0,1,10.41,5.074,17.725,17.725,0,0,1,5.249,12.684V61.98l.787-.175,1.312-2.012-.437.087a19.959,19.959,0,0,0-5.686-12.859,19.281,19.281,0,0,0-11.372-5.6l-1.837-.262v3.5l-8.4-4.724,8.4-4.811" transform="translate(-52.3 -32.5)"/></g><g transform="translate(23.444 7.785)"><path class="b" d="M81.629,61.9l-1.05-.087v-1.05A17.411,17.411,0,0,0,65.971,43.534v4.724L51.1,39.773,65.883,31.2v5.074a26.1,26.1,0,0,1,6.823,1.75,23.53,23.53,0,0,1,7.785,5.249,24.459,24.459,0,0,1,5.249,7.785,24.847,24.847,0,0,1,1.924,9.01h-1.05a24.771,24.771,0,0,0-1.837-8.66A22.934,22.934,0,0,0,79.7,43.972,23.907,23.907,0,0,0,72.269,38.9a23.5,23.5,0,0,0-7-1.75l-.525-.087v-4.2L53.287,39.773l11.634,6.736V42.4l.612.087a18.716,18.716,0,0,1,10.76,5.249,18.336,18.336,0,0,1,5.424,13.034A5.38,5.38,0,0,0,81.629,61.9Z" transform="translate(-51.1 -31.2)"/></g><g transform="translate(16.183 32.629)"><path class="b" d="M62.132,88.9a24.821,24.821,0,0,1-14.521-4.724A24.178,24.178,0,0,1,42.8,79.545l.875-.7a23.9,23.9,0,0,0,4.549,4.374,23.533,23.533,0,0,0,32.891-5.074,24.649,24.649,0,0,0,2.537-4.374l.175-.437,4.024,1.312L85.139,61.524l-9.972,9.01L79.1,71.847l-.262.525a19.123,19.123,0,0,1-5.773,6.911,18.01,18.01,0,0,1-10.935,3.587A18.2,18.2,0,0,1,51.2,79.282a19.455,19.455,0,0,1-4.549-4.724l.875-.612a16,16,0,0,0,4.286,4.461,17.418,17.418,0,0,0,20.469,0,17.66,17.66,0,0,0,5.161-5.948l-4.461-1.487L85.751,59.6l3.412,16.8-4.811-1.662a25.076,25.076,0,0,1-2.449,4.2,25.713,25.713,0,0,1-5.336,5.336A24.28,24.28,0,0,1,62.132,88.9Z" transform="translate(-42.8 -59.6)"/></g><g transform="translate(30.092 19.595)"><path class="b" d="M64.473,81C60.712,81,58.7,71.293,58.7,62.2c0-6.561.962-12.509,2.624-15.921l.962.437c-1.575,3.237-2.449,9.185-2.449,15.4,0,10.5,2.537,17.758,4.724,17.758,2.274,0,4.724-7.261,4.724-17.758,0-7.435-1.312-14.171-3.237-16.8l.875-.612c2.1,2.8,3.5,9.71,3.5,17.408C70.247,71.293,68.235,81,64.473,81Z" transform="translate(-58.7 -44.7)"/></g></g><g transform="translate(49.265 15.499)"><path class="c" d="M55.987,20.874l-.7.175c-.087,0-.087,0-.087-.087l-.7-3.5c0-.087,0-.087.087-.087l.7-.175c.087,0,.087,0,.087.087l.7,3.5C56.075,20.874,56.075,20.874,55.987,20.874Z" transform="translate(-54.5 -16.325)"/><path class="c" d="M57.972,20.536a1.789,1.789,0,0,1-.962,0c-.087,0-.087,0-.087-.087l-.087-.525c0-.087,0-.087.087-.087h0c.175,0,.787-.087.962-.087.35-.087.437-.175.35-.437,0-.175-.087-.175-.35-.35L57.1,18.7a.893.893,0,0,1-.7-.875c-.087-.525.175-1.05,1.137-1.137a5.02,5.02,0,0,1,1.05-.087.086.086,0,0,1,.087.087l.087.525c0,.087,0,.087-.087.087h0c-.175,0-.7.087-1.05.087a.32.32,0,0,0-.35.35c0,.175.087.175.35.262l.7.262a.991.991,0,0,1,.787.875C59.284,19.749,59.022,20.361,57.972,20.536Z" transform="translate(-54.736 -16.25)"/><path class="c" d="M61.312,20.261a2.992,2.992,0,0,1-.962-.087c-.087,0-.087,0-.087-.087v-.525c0-.087,0-.087.087-.087h.962c.35,0,.437-.175.437-.35s-.087-.262-.35-.35l-.7-.35a1.113,1.113,0,0,1-.7-.875c0-.525.262-.962,1.225-1.05h1.05a.086.086,0,0,1,.087.087v.525c0,.087,0,.087-.087.087h-1.05c-.262,0-.35.087-.35.262s.087.175.35.35l.7.262a1.224,1.224,0,0,1,.787.962A1.422,1.422,0,0,1,61.312,20.261Z" transform="translate(-55.189 -16.238)"/><path class="c" d="M65,20.049c-.787,0-1.4-.35-1.4-1.487V16.287a.086.086,0,0,1,.087-.087h.7c.087,0,.087,0,.087.087v2.274c0,.525.087.7.612.7.437,0,.612-.175.612-.7V16.287a.086.086,0,0,1,.087-.087H66.4c.087,0,.087,0,.087.087v2.274C66.487,19.787,65.787,20.136,65,20.049Z" transform="translate(-55.64 -16.2)"/><path class="c" d="M69.8,20.346h-.962c-.612-.087-1.225-.262-1.137-1.225l.175-1.662a1.014,1.014,0,0,1,1.312-.962,4.753,4.753,0,0,1,.962.175.086.086,0,0,1,.087.087l-.087.437a.086.086,0,0,1-.087.087l-1.05-.087c-.262,0-.35.087-.35.35l-.087.437,1.312.087a.086.086,0,0,1,.087.087v.525a.086.086,0,0,1-.087.087l-1.312-.087-.087.525c0,.262.087.35.262.35l1.05.087a.086.086,0,0,1,.087.087l-.087.437C69.886,20.346,69.886,20.346,69.8,20.346Z" transform="translate(-56.152 -16.235)"/><path class="c" d="M73.6,21.011l-.787-.175a.086.086,0,0,1-.087-.087l-.437-1.4H72.2c-.087,0-.262-.087-.35-.087l-.262,1.225a.086.086,0,0,1-.087.087l-.612-.087A.086.086,0,0,1,70.8,20.4l.612-3.324c0-.175.087-.175.262-.175.262,0,.7.087,1.05.087.875.175,1.4.525,1.225,1.4v.087a1.031,1.031,0,0,1-.787.875l.525,1.487c0,.087,0,.087-.087.175ZM73.162,18.3c.087-.262-.175-.437-.525-.525a1.984,1.984,0,0,1-.35-.087l-.175.962c.087,0,.262.087.35.087.437.087.612,0,.7-.437Z" transform="translate(-56.541 -16.288)"/></g><g transform="translate(36.542 86.967)"><path class="c" d="M40.869,102.558c-.35-.262-.612-.437-.875-.612a.121.121,0,0,1,0-.175l.262-.437c0-.087.087-.087.175,0h0a5.31,5.31,0,0,0,.875.612c.35.175.525.175.612-.087.087-.175.087-.262-.087-.525l-.437-.787a1.042,1.042,0,0,1,0-1.225c.35-.525.875-.787,1.75-.262a4.568,4.568,0,0,1,.962.7s.087.087,0,.087l-.262.525s-.087.087-.087,0h0c-.087-.087-.7-.437-.962-.612s-.437-.175-.525,0-.087.262.087.525l.437.7a1.192,1.192,0,0,1,.087,1.4A1.573,1.573,0,0,1,40.869,102.558Z" transform="translate(-39.956 -98.009)"/><path class="c" d="M44.957,104.561a1.39,1.39,0,0,1-.787-2.1l1.05-2.274c0-.087.087-.087.175-.087l.7.262c.087,0,.087.087.087.175l-1.05,2.274c-.262.525-.175.787.262,1.05.437.175.7.087.962-.437l1.05-2.274c0-.087.087-.087.175-.087l.7.262c.087,0,.087.087.087.175l-1.05,2.274A1.693,1.693,0,0,1,44.957,104.561Z" transform="translate(-40.457 -98.176)"/><path class="c" d="M48.95,106.214a5.092,5.092,0,0,1-.962-.437c-.087,0-.087-.087-.087-.175l.175-.525a.086.086,0,0,1,.087-.087h0c.175.087.787.35.962.437.35.087.525.087.612-.175.087-.175,0-.262-.175-.525l-.612-.7a1.137,1.137,0,0,1-.262-1.225c.175-.612.7-.875,1.75-.525a5.824,5.824,0,0,1,1.05.525l.087.087-.175.525a.086.086,0,0,1-.087.087h0a5.152,5.152,0,0,0-1.137-.437c-.262-.087-.437-.087-.525.175-.087.175,0,.262.262.525l.525.612c.437.525.525.875.35,1.312S50,106.564,48.95,106.214Z" transform="translate(-40.95 -98.429)"/><path class="c" d="M55.2,104.387l-.875-.262-.787,3.149c0,.087-.087.087-.175.087l-.7-.175c-.087,0-.087-.087-.087-.175l.787-3.149-.875-.262a.086.086,0,0,1-.087-.087l.175-.525c0-.087.087-.087.175-.087l2.712.7c.087,0,.087.087.087.175l-.175.525C55.287,104.387,55.287,104.387,55.2,104.387Z" transform="translate(-41.514 -98.526)"/><path class="c" d="M58.212,108.38l-.787-.087a.086.086,0,0,1-.087-.087l-.087-.962-1.137-.175-.35.875a.086.086,0,0,1-.087.087l-.787-.087a.086.086,0,0,1-.087-.087h0l1.4-3.324c.175-.525.612-.525,1.05-.437.35.087.787.175.787.787l.262,3.587h0C58.3,108.38,58.3,108.468,58.212,108.38Zm-.962-3.5c0-.087,0-.087-.087-.087s-.087,0-.087.087l-.612,1.487.787.175Z" transform="translate(-41.815 -98.67)"/><path class="c" d="M60.475,108.6l-.787-.087a.086.086,0,0,1-.087-.087l.35-3.936a.086.086,0,0,1,.087-.087l.787.087a.086.086,0,0,1,.087.087l-.35,3.936C60.562,108.6,60.562,108.6,60.475,108.6Z" transform="translate(-42.416 -98.714)"/><path class="c" d="M64.874,108.811h-.525c-.087,0-.175,0-.262-.175l-1.225-2.187a.086.086,0,0,0-.087-.087v2.362a.086.086,0,0,1-.087.087h-.7a.086.086,0,0,1-.087-.087l.087-3.849a.188.188,0,0,1,.175-.175h.525c.087,0,.175.087.262.175l1.312,2.362a.086.086,0,0,0,.087.087v-.087l.087-2.362a.086.086,0,0,1,.087-.087h.7a.086.086,0,0,1,.087.087l-.087,3.849C65.137,108.724,65.049,108.811,64.874,108.811Z" transform="translate(-42.704 -98.752)"/><path class="c" d="M69.924,108.536l-.787.087c-.087,0-.087,0-.087-.087l-.262-.875-1.137.087-.087.962a.086.086,0,0,1-.087.087l-.787.087c-.087,0-.087,0-.087-.087h0l.525-3.5a.833.833,0,0,1,.875-.7c.35,0,.787,0,.962.525l1.137,3.412h0A.121.121,0,0,0,69.924,108.536ZM68,105.3h0c-.087-.087-.175-.087-.175,0l-.175,1.575.875-.087Z" transform="translate(-43.292 -98.739)"/><path class="c" d="M72.507,108.09a4.622,4.622,0,0,1-1.05.087c-.262,0-.35-.087-.35-.262l-.612-3.324c-.087-.262,0-.35.262-.437a7.1,7.1,0,0,1,.962-.262c1.05-.175,1.75,0,1.924.875v.087a.832.832,0,0,1-.35.875.848.848,0,0,1,.612.7v.087C74.257,107.478,73.47,107.915,72.507,108.09Zm.262-3.149c-.087-.262-.262-.437-.875-.262-.087,0-.35.087-.437.087l.175.962.612-.087c.525-.087.612-.35.525-.7Zm.35,1.662c-.087-.262-.262-.437-.7-.35l-.612.087.175,1.05c.087,0,.35-.087.437-.087.612-.087.787-.262.7-.7Z" transform="translate(-43.776 -98.643)"/><path class="c" d="M76.45,107.224l-.7.175c-.087,0-.087,0-.087-.087l-.962-3.849c0-.087,0-.087.087-.087l.7-.175c.087,0,.087,0,.087.087l.962,3.849Z" transform="translate(-44.307 -98.564)"/><path class="c" d="M79.812,106.2a4.49,4.49,0,0,1-.875.35c-.7.262-1.312.262-1.662-.7l-.875-2.712c0-.087,0-.087.087-.175l.7-.262c.087,0,.087,0,.175.087l.875,2.712c.087.262.175.35.437.262l.875-.262c.087,0,.087,0,.175.087l.175.525Z" transform="translate(-44.52 -98.501)"/><path class="c" d="M81.774,105.436l-.7.262c-.087,0-.087,0-.175-.087l-1.4-3.674c0-.087,0-.087.087-.175l.7-.262c.087,0,.087,0,.175.087l1.4,3.674A.271.271,0,0,0,81.774,105.436Z" transform="translate(-44.908 -98.351)"/><path class="c" d="M83.874,100.687l-.787.35,1.4,2.974c0,.087,0,.087-.087.175l-.7.35c-.087,0-.087,0-.175-.087l-1.4-2.974-.787.35c-.087,0-.087,0-.175-.087l-.262-.525c0-.087,0-.087.087-.175L83.524,99.9c.087,0,.087,0,.175.087l.262.525A.305.305,0,0,1,83.874,100.687Z" transform="translate(-45.083 -98.15)"/><path class="c" d="M87.187,97.987l.262,2.1c0,.262,0,.437-.087.525l.787,1.312v.175l-.612.35h-.175l-.787-1.312a.643.643,0,0,1-.525-.175L84.3,99.737h0V99.65l.7-.437h.175l1.312,1.05c.087.087.087.087.087,0v-.087l-.262-1.662c0-.087,0-.087.087-.175l.7-.437.087.087Z" transform="translate(-45.509 -97.9)"/></g><g transform="translate(96.502 50.139)"><path class="e" d="M116.547,59.29l-1.225-2.537a.657.657,0,0,0-1.137,0L112.96,59.29a.581.581,0,0,1-.437.35l-2.8.437a.618.618,0,0,0-.35,1.05l2.012,2.012a.643.643,0,0,1,.175.525l-.525,2.8a.579.579,0,0,0,.875.612l2.537-1.312a.747.747,0,0,1,.612,0l2.537,1.312a.6.6,0,0,0,.875-.612l-.437-2.8c0-.175,0-.437.175-.525l2.012-2.012a.618.618,0,0,0-.35-1.05l-2.8-.437A.591.591,0,0,1,116.547,59.29Z" transform="translate(-108.587 -55.878)"/><path class="b" d="M117.685,67.7a1.243,1.243,0,0,1-.525-.175l-2.537-1.312h0l-2.537,1.312a1.4,1.4,0,0,1-1.312-.087,1.139,1.139,0,0,1-.437-1.137l.525-2.8h0l-2.012-2.012a1.083,1.083,0,0,1-.262-1.225,1.114,1.114,0,0,1,.962-.787l2.8-.437h0l1.225-2.537a1.137,1.137,0,0,1,1.05-.7h0a1.137,1.137,0,0,1,1.05.7l1.225,2.537h0l2.8.437a1.261,1.261,0,0,1,.962.787,1.121,1.121,0,0,1-.35,1.225L118.3,63.5h0l.437,2.8a1.139,1.139,0,0,1-.437,1.137A.681.681,0,0,1,117.685,67.7Zm-3.062-2.624a1.243,1.243,0,0,1,.525.175l2.537,1.225h0l-.437-2.8a1.2,1.2,0,0,1,.35-1.05l2.012-2.012h0l-2.8-.437a1.162,1.162,0,0,1-.875-.7h0l-1.225-2.537h0l-1.225,2.537a1.39,1.39,0,0,1-.875.7l-2.8.437h0l2.012,2.012a1.2,1.2,0,0,1,.35,1.05l-.525,2.8h0l2.537-1.312A.655.655,0,0,1,114.623,65.072Z" transform="translate(-108.5 -55.8)"/></g><g transform="translate(93.965 35.006)"><path class="e" d="M113.647,42.09l-1.225-2.537a.657.657,0,0,0-1.137,0L110.06,42.09a.581.581,0,0,1-.437.35l-2.8.437a.618.618,0,0,0-.35,1.05l2.012,2.012a.643.643,0,0,1,.175.525l-.525,2.8a.579.579,0,0,0,.875.612l2.537-1.312a.747.747,0,0,1,.612,0l2.537,1.312a.6.6,0,0,0,.875-.612l-.437-2.8c0-.175,0-.437.175-.525l2.012-2.012a.618.618,0,0,0-.35-1.05l-2.8-.437A.8.8,0,0,1,113.647,42.09Z" transform="translate(-105.687 -38.591)"/><path class="b" d="M114.872,50.4a1.243,1.243,0,0,1-.525-.175l-2.537-1.312h0l-2.537,1.312a1.4,1.4,0,0,1-1.312-.087A1.139,1.139,0,0,1,107.524,49l.525-2.8h0l-2.1-2.012a1.083,1.083,0,0,1-.262-1.225,1.114,1.114,0,0,1,.962-.787l2.8-.437h0l1.225-2.537a1.137,1.137,0,0,1,1.05-.7h0a1.137,1.137,0,0,1,1.05.7L114,41.737h0l2.8.437a1.261,1.261,0,0,1,.962.787,1.121,1.121,0,0,1-.35,1.225L115.4,46.2h0l.437,2.8a1.139,1.139,0,0,1-.437,1.137A.623.623,0,0,1,114.872,50.4Zm-3.149-2.624a1.243,1.243,0,0,1,.525.175l2.537,1.312h0l-.437-2.8a1.2,1.2,0,0,1,.35-1.05l2.012-2.012h0l-2.8-.437a1.162,1.162,0,0,1-.875-.7h0l-1.225-2.537h0l-1.225,2.537a1.39,1.39,0,0,1-.875.7l-2.8.437h0l2.012,2.012a1.2,1.2,0,0,1,.35,1.05l-.525,2.8h0l2.537-1.312C111.373,47.772,111.548,47.772,111.723,47.772Z" transform="translate(-105.6 -38.5)"/></g><g transform="translate(86.705 21.36)"><path class="e" d="M105.347,26.49l-1.225-2.537a.657.657,0,0,0-1.137,0L101.76,26.49a.581.581,0,0,1-.437.35l-2.8.437a.618.618,0,0,0-.35,1.05l2.012,2.012a.643.643,0,0,1,.175.525l-.525,2.8a.579.579,0,0,0,.875.612l2.537-1.312a.747.747,0,0,1,.612,0l2.537,1.312a.6.6,0,0,0,.875-.612l-.437-2.8c0-.175,0-.437.175-.525l2.012-2.012a.618.618,0,0,0-.35-1.05l-2.8-.437A.8.8,0,0,1,105.347,26.49Z" transform="translate(-97.387 -22.991)"/><path class="b" d="M106.485,34.8a1.243,1.243,0,0,1-.525-.175l-2.537-1.312h0l-2.537,1.312a1.4,1.4,0,0,1-1.312-.087,1.139,1.139,0,0,1-.437-1.137l.525-2.8h0L97.65,28.586a1.083,1.083,0,0,1-.262-1.225,1.114,1.114,0,0,1,.962-.787l2.8-.437h0l1.225-2.537a1.137,1.137,0,0,1,1.05-.7h0a1.137,1.137,0,0,1,1.05.7l1.225,2.537h0l2.8.437a1.261,1.261,0,0,1,.962.787,1.121,1.121,0,0,1-.35,1.225L107.1,30.6h0l.437,2.8a1.139,1.139,0,0,1-.437,1.137A.681.681,0,0,1,106.485,34.8Zm-3.062-2.624a1.243,1.243,0,0,1,.525.175l2.537,1.312h0l-.437-2.8a1.2,1.2,0,0,1,.35-1.05l2.012-2.012h0l-2.8-.437a1.162,1.162,0,0,1-.875-.7h0l-1.225-2.537h0l-1.225,2.537a1.39,1.39,0,0,1-.875.7l-2.8.437h0l2.012,2.012a1.2,1.2,0,0,1,.35,1.05l-.525,2.8h0l2.537-1.312C102.986,32.26,103.248,32.172,103.423,32.172Z" transform="translate(-97.3 -22.9)"/></g></g></svg>