<svg xmlns="http://www.w3.org/2000/svg" xmlns:xlink="http://www.w3.org/1999/xlink" viewBox="0 0 576.86 86.2"><defs><style>.cls-1{fill:none;}.cls-2{clip-path:url(#clip-path);}.cls-3{fill:#00aacd;}.cls-4{fill:#d5067f;}.cls-5{fill:#fff;}.cls-6{clip-path:url(#clip-path-3);}.cls-7{fill:#b9ce00;}.cls-8{clip-path:url(#clip-path-4);}.cls-9{fill:#f9b000;}.cls-10{fill:#00aaca;}</style><clipPath id="clip-path" transform="translate(0)"><rect class="cls-1" width="500.85" height="65.7"/></clipPath><clipPath id="clip-path-3" transform="translate(0)"><rect class="cls-1" x="225.91" y="65.48" width="240.89" height="20.35"/></clipPath><clipPath id="clip-path-4" transform="translate(0)"><rect class="cls-1" x="225.91" y="65.48" width="240.89" height="20.35"/></clipPath></defs><title>Gentlestudent_logo_powered-by</title><g id="Laag_2" data-name="Laag 2"><g id="Laag_1-2" data-name="Laag 1"><g id="Illustratie_21" data-name="Illustratie 21"><g class="cls-2"><g class="cls-2"><path class="cls-3" d="M63.23,20.1A33.59,33.59,0,0,0,46.73,3a31.76,31.76,0,0,0-12.2-3h-1.7a31.62,31.62,0,0,0-13.2,2.8A33,33,0,0,0,9,10.3a32.46,32.46,0,0,0-6.9,11A33.46,33.46,0,0,0,0,34.6,32.67,32.67,0,0,0,3,46.8a33.59,33.59,0,0,0,17.1,16.5,27.09,27.09,0,0,0,11.4,2.4h34.1V31.6a27.22,27.22,0,0,0-2.4-11.5m-9.5,8.1H31.53v9.1h12.7a13.67,13.67,0,0,1-2.7,4.2,12.3,12.3,0,1,1-.2-17.6l.4.4h10.9l-1.1-1.9a21.62,21.62,0,0,0-13.1-10.2,23.23,23.23,0,0,0-18,2.8,14.53,14.53,0,0,0-5.5,5.5c-5.6,9.4-4.6,20.2,2.5,27.5a21,21,0,0,0,15.3,6.4,24.42,24.42,0,0,0,12-3.3,15.2,15.2,0,0,0,5.5-5.2,24.28,24.28,0,0,0,3.5-8.4h4a25.43,25.43,0,0,1-50.4-3.3,24.88,24.88,0,0,1,7-18.8,25.37,25.37,0,0,1,18.4-8H34a25.27,25.27,0,0,1,23.6,20.8Z" transform="translate(0)"/><path class="cls-3" d="M107,38.2H83.53v.2c0,4.2,1.7,9.1,8.6,9.1,5.3,0,10.2-.4,13.2-.7h.2a1.16,1.16,0,0,1,1.3,1.1v4.8c0,1.2-.2,1.7-1.5,1.9a62.33,62.33,0,0,1-14,1.2c-7.2,0-17.4-3.9-17.4-18.1V32.4c0-11.2,6.3-18.3,17.3-18.3s17.1,7.6,17.1,18.3v4c.2,1.2-.3,1.8-1.3,1.8m-8.1-7c0-5.6-3.1-8.9-7.6-8.9s-7.7,3.2-7.7,8.9v.3h15.3Z" transform="translate(0)"/><path class="cls-3" d="M148.43,55.2h-6.6a1.45,1.45,0,0,1-1.4-1.5V30.2c0-6.3-.6-8.1-6.1-8.1-2.4,0-5.1,1-8.1,2.6V53.6a1.45,1.45,0,0,1-1.4,1.5h-6.6a1.45,1.45,0,0,1-1.4-1.5V15.9a1.37,1.37,0,0,1,1.4-1.4h6.3a1.37,1.37,0,0,1,1.4,1.4v1.5a18.54,18.54,0,0,1,11.7-3.5c10.4,0,12.5,7,12.5,16.1V53.5a1.9,1.9,0,0,1-1.7,1.7" transform="translate(0)"/><path class="cls-3" d="M179.13,55.3a28.09,28.09,0,0,1-4.9.5c-8.1,0-11.4-1.8-11.4-11.4V21.8l-6.8-1a1.43,1.43,0,0,1-1.4-1.4V16.2a1.37,1.37,0,0,1,1.4-1.4h6.8V8.9a1.43,1.43,0,0,1,1.4-1.4l6.7-1.2h.3a1.13,1.13,0,0,1,1.2,1.1v7.4h6.5a1.37,1.37,0,0,1,1.4,1.4v4.2a1.37,1.37,0,0,1-1.4,1.4h-6.5V44.4c0,3.6.2,4,2.8,4H179c.9,0,1.5.4,1.5,1.1V54c0,.7-.5,1.1-1.4,1.3" transform="translate(0)"/><path class="cls-3" d="M195.53,55.2h-6.7a1.45,1.45,0,0,1-1.4-1.5V1.9a1.37,1.37,0,0,1,1.4-1.4h6.7a1.37,1.37,0,0,1,1.4,1.4V53.7a1.61,1.61,0,0,1-1.4,1.5" transform="translate(0)"/><path class="cls-3" d="M238.33,38.2h-23.5v.2c0,4.2,1.7,9.1,8.6,9.1,5.3,0,10.2-.4,13.2-.7h.2a1.16,1.16,0,0,1,1.3,1.1v4.8c0,1.2-.2,1.7-1.5,1.9a62.33,62.33,0,0,1-14,1.2c-7.2,0-17.4-3.9-17.4-18.1V32.4c0-11.2,6.3-18.3,17.3-18.3s17.1,7.6,17.1,18.3v4c.1,1.2-.3,1.8-1.3,1.8m-8.1-7c0-5.6-3.1-8.9-7.6-8.9s-7.7,3.2-7.7,8.9v.3h15.3Z" transform="translate(0)"/><path class="cls-3" d="M261,55.8a64.7,64.7,0,0,1-12.9-1.4,1.63,1.63,0,0,1-1.4-1.7V48.4a1.22,1.22,0,0,1,1.2-1.2h.3c3.5.4,9.9.8,12.1.8,4.5,0,5.1-1.5,5.1-3.5,0-1.4-.9-2.2-3.2-3.7l-9.9-6c-3.5-2.2-6-5.8-6-9.9,0-7.2,4.5-10.8,13.7-10.8a53.46,53.46,0,0,1,12.8,1.4,1.55,1.55,0,0,1,1.3,1.7v4.2c0,.9-.4,1.4-1.2,1.4h-.3a102.09,102.09,0,0,0-11.9-.9c-3.5,0-5,.8-5,3,0,1.2,1.1,1.9,2.9,3l9.4,5.8c6,3.7,6.9,7.3,6.9,10.9.3,6.2-4.4,11.2-13.9,11.2" transform="translate(0)"/><path class="cls-3" d="M303.73,55.3a28.09,28.09,0,0,1-4.9.5c-8.1,0-11.4-1.8-11.4-11.4V21.8l-6.8-1a1.43,1.43,0,0,1-1.4-1.4V16.2a1.37,1.37,0,0,1,1.4-1.4h6.8V8.9a1.43,1.43,0,0,1,1.4-1.4l6.7-1.2h.3A1.13,1.13,0,0,1,297,7.4v7.4h6.5a1.37,1.37,0,0,1,1.4,1.4v4.2a1.37,1.37,0,0,1-1.4,1.4H297V44.4c0,3.6.2,4,2.8,4h3.8c.9,0,1.5.4,1.5,1.1V54c-.1.7-.5,1.1-1.4,1.3" transform="translate(0)"/><path class="cls-3" d="M343.33,55.2h-6.6a1.37,1.37,0,0,1-1.4-1.4V52.1c-3.7,2.4-6.7,3.6-11.3,3.6-3.6,0-6.8-.9-8.9-3-2.7-2.7-3.6-7.1-3.6-13.1V16.1a1.45,1.45,0,0,1,1.4-1.5h6.6a1.45,1.45,0,0,1,1.4,1.5V39.6c0,3.6.3,5.7,1.7,6.9,1,.9,2.2,1.3,4.5,1.3,2.7,0,6.1-1.8,8.1-2.9V16.1a1.45,1.45,0,0,1,1.4-1.5h6.6a1.45,1.45,0,0,1,1.4,1.5V53.8a1.19,1.19,0,0,1-1.3,1.4" transform="translate(0)"/><path class="cls-3" d="M384.43,53.9a59.49,59.49,0,0,1-14.5,1.9c-11.6,0-17.2-6.8-17.2-18.1V32.2c0-11.2,5.6-18.1,17.2-18.1a48.29,48.29,0,0,1,6.9.5V1.9a1.37,1.37,0,0,1,1.4-1.4h6.6a1.37,1.37,0,0,1,1.4,1.4V52c.1,1.1-.2,1.5-1.8,1.9m-7.6-31.5a57.47,57.47,0,0,0-6.9-.5c-6.2,0-7.7,4.4-7.7,10.3v5.5c0,5.9,1.5,10.3,7.7,10.3a40.74,40.74,0,0,0,6.9-.5Z" transform="translate(0)"/><path class="cls-3" d="M427.43,38.2h-23.5v.2c0,4.2,1.7,9.1,8.6,9.1,5.3,0,10.2-.4,13.2-.7h.2a1.16,1.16,0,0,1,1.3,1.1v4.8c0,1.2-.2,1.7-1.5,1.9a62.33,62.33,0,0,1-14,1.2c-7.2,0-17.4-3.9-17.4-18.1V32.4c0-11.2,6.3-18.3,17.3-18.3s17.1,7.6,17.1,18.3v4c.2,1.2-.3,1.8-1.3,1.8m-8.1-7c0-5.6-3.1-8.9-7.6-8.9s-7.7,3.2-7.7,8.9v.3h15.3Z" transform="translate(0)"/><path class="cls-3" d="M468.83,55.2h-6.6a1.45,1.45,0,0,1-1.4-1.5V30.2c0-6.3-.6-8.1-6.1-8.1-2.4,0-5.1,1-8.1,2.6V53.6a1.45,1.45,0,0,1-1.4,1.5h-6.6a1.45,1.45,0,0,1-1.4-1.5V15.9a1.37,1.37,0,0,1,1.4-1.4h6.3a1.37,1.37,0,0,1,1.4,1.4v1.5A18.54,18.54,0,0,1,458,13.9c10.4,0,12.5,7,12.5,16.1V53.5a1.9,1.9,0,0,1-1.7,1.7" transform="translate(0)"/><path class="cls-3" d="M499.53,55.3a28.09,28.09,0,0,1-4.9.5c-8.1,0-11.4-1.8-11.4-11.4V21.8l-6.8-1a1.43,1.43,0,0,1-1.4-1.4V16.2a1.37,1.37,0,0,1,1.4-1.4h6.8V8.9a1.43,1.43,0,0,1,1.4-1.4l6.7-1.2h.3a1.13,1.13,0,0,1,1.2,1.1v7.4h6.5a1.37,1.37,0,0,1,1.4,1.4v4.2a1.37,1.37,0,0,1-1.4,1.4h-6.6V44.4c0,3.6.2,4,2.8,4h3.8c.9,0,1.5.4,1.5,1.1V54c.1.7-.4,1.1-1.3,1.3" transform="translate(0)"/></g></g></g><rect class="cls-4" x="506.86" y="29.4" width="70" height="26" rx="13" ry="13"/><path class="cls-5" d="M525,49.21a24.65,24.65,0,0,1-3.36-.22c-.73-.13-1-.37-1-1.19V36.65c0-.82.25-1.08,1-1.19a28.61,28.61,0,0,1,3.28-.2c3.46,0,5.79.92,5.79,3.83v.33a2.89,2.89,0,0,1-1.54,2.69,2.94,2.94,0,0,1,1.63,2.72v.27C530.77,48.33,528.17,49.21,525,49.21Zm2.65-9.92c0-1-.64-1.46-2.53-1.46h-1.39V41h2c1.45,0,1.87-.66,1.87-1.45Zm.08,5.54c0-.88-.48-1.63-2-1.63h-2v3.42l1.51,0c1.88,0,2.49-.59,2.49-1.61Z" transform="translate(0)"/><path class="cls-5" d="M540.85,49a21.89,21.89,0,0,1-3.56.24c-2.36,0-4.45-.61-4.45-3.94V39.18c0-3.33,2.1-3.92,4.47-3.92a21.56,21.56,0,0,1,3.54.24c.25,0,.36.13.36.37v1.7a.37.37,0,0,1-.36.37h-3.73c-.86,0-1.17.29-1.17,1.24v1.67h4.75a.38.38,0,0,1,.37.37V43a.37.37,0,0,1-.37.36H536v2c0,.95.31,1.24,1.17,1.24h3.73a.37.37,0,0,1,.36.37v1.7C541.21,48.82,541.1,48.93,540.85,49Z" transform="translate(0)"/><path class="cls-5" d="M552.15,38h-3V48.68a.37.37,0,0,1-.37.36h-2.4a.36.36,0,0,1-.36-.36V38h-3a.36.36,0,0,1-.37-.35V35.77a.35.35,0,0,1,.37-.34h9.09a.36.36,0,0,1,.38.34v1.89A.37.37,0,0,1,552.15,38Z" transform="translate(0)"/><path class="cls-5" d="M563.31,49h-2.57a.39.39,0,0,1-.37-.33l-.65-3H556l-.66,3a.39.39,0,0,1-.37.33h-2.56a.28.28,0,0,1-.31-.29s0-.06,0-.09l2.73-11.37c.43-1.75,1.78-2,3.05-2s2.6.28,3,2l2.73,11.37s0,.07,0,.09A.28.28,0,0,1,563.31,49Zm-5.23-10.9c0-.19-.07-.28-.23-.28s-.22.09-.26.28l-1.12,5.06h2.73Z" transform="translate(0)"/><g id="Illustratie_58" data-name="Illustratie 58"><g class="cls-6"><polygon class="cls-7" points="248.89 84.28 254.59 84.28 254.59 78.57 248.91 78.57 248.89 84.28"/><rect class="cls-7" x="248.89" y="67.16" width="5.71" height="5.71"/><g class="cls-8"><path class="cls-9" d="M234.55,67a8.63,8.63,0,1,0,0,17.26h8.63V75.65A8.63,8.63,0,0,0,234.55,67m2.87,11.51h-2.87a2.88,2.88,0,1,1,2.87-2.88Z" transform="translate(0)"/><path class="cls-10" d="M272.45,81.62H270.1a.43.43,0,0,1-.42-.43v-.33a4.63,4.63,0,0,1-2.93,1,3.28,3.28,0,0,1-3.6-3.62V78c0-2.47,1.58-3.56,5.18-3.56h1.14v-.76c0-1.2-.59-1.45-1.58-1.45-1.35,0-2.84.08-3.49.15h-.11a.35.35,0,0,1-.38-.38V70.3a.48.48,0,0,1,.4-.47,16.92,16.92,0,0,1,3.64-.44c3,0,4.93,1.22,4.93,4.29v7.51a.43.43,0,0,1-.43.43m-2.92-5.16h-1.2c-1.47,0-1.85.51-1.85,1.54v.19c0,.88.44,1,1.32,1a3.81,3.81,0,0,0,1.73-.47Z" transform="translate(0)"/><path class="cls-10" d="M282.11,72.21h-.17a5.67,5.67,0,0,0-2.71.74v8.22a.45.45,0,0,1-.42.45h-2.55a.47.47,0,0,1-.44-.45V70a.42.42,0,0,1,.42-.42h2.51a.42.42,0,0,1,.42.42v.42a4.52,4.52,0,0,1,2.84-1,.42.42,0,0,1,.42.42v2c0,.19-.13.4-.32.4" transform="translate(0)"/><path class="cls-10" d="M291.42,81.64a9.54,9.54,0,0,1-1.66.17c-2.31,0-3.53-.62-3.53-3.6V72.1l-1.69-.27a.49.49,0,0,1-.44-.44V70a.46.46,0,0,1,.44-.44h1.69V67.83a.44.44,0,0,1,.42-.42l2.56-.44h.07a.36.36,0,0,1,.38.36v2.23h1.72a.42.42,0,0,1,.42.42v1.7a.42.42,0,0,1-.42.42h-1.72v6.13c0,.84.06,1,.69,1h1c.27,0,.44.12.44.35v1.65a.44.44,0,0,1-.4.42" transform="translate(0)"/><path class="cls-10" d="M303.92,76.65h-6.71v0a2,2,0,0,0,2.17,2.3c1.32,0,3.19-.11,4-.19h.06c.23,0,.4.1.4.33v1.6c0,.34-.09.49-.44.57a16,16,0,0,1-4.32.51c-2.54,0-5.28-1.35-5.28-5.41V74.92c0-3.38,2-5.53,5.33-5.53s5.19,2.36,5.19,5.53v1.22c0,.32-.17.51-.44.51M301,74.46c0-1.56-.72-2.33-1.9-2.33s-1.93.8-1.93,2.33v.09H301Z" transform="translate(0)"/><path class="cls-10" d="M317.25,70,314.6,79.6a3.2,3.2,0,0,1-6.08,0L305.89,70a.25.25,0,0,1,0-.12.33.33,0,0,1,.33-.36H309a.51.51,0,0,1,.44.44l1.81,8.25c.06.31.17.44.32.44s.27-.13.33-.44L313.69,70c.07-.25.23-.44.45-.44h2.77a.36.36,0,0,1,.36.36.25.25,0,0,1,0,.12" transform="translate(0)"/><path class="cls-10" d="M328.83,76.65h-6.71v0a2,2,0,0,0,2.17,2.3c1.32,0,3.2-.11,4-.19h.06c.23,0,.4.1.4.33v1.6c0,.34-.08.49-.44.57a15.94,15.94,0,0,1-4.32.51c-2.54,0-5.28-1.35-5.28-5.41V74.92c0-3.38,2-5.53,5.33-5.53s5.19,2.36,5.19,5.53v1.22c0,.32-.16.51-.44.51M326,74.46c0-1.56-.72-2.33-1.89-2.33s-1.94.8-1.94,2.33v.09H326Z" transform="translate(0)"/><path class="cls-10" d="M334.89,81.62h-2.57a.47.47,0,0,1-.44-.45V65.9a.44.44,0,0,1,.44-.42h2.57a.41.41,0,0,1,.4.42V81.17a.43.43,0,0,1-.4.45" transform="translate(0)"/><path class="cls-10" d="M347.6,81.26a20,20,0,0,1-4.48.55c-3.41,0-5.28-2-5.28-5.39V74.78c0-3.31,1.72-5.39,5.28-5.39a13.5,13.5,0,0,1,1.72.15V65.9a.42.42,0,0,1,.42-.42h2.55a.44.44,0,0,1,.44.42V80.65c0,.33-.08.48-.65.61m-2.76-9a16.53,16.53,0,0,0-1.72-.1c-1.5,0-1.87,1.09-1.87,2.57v1.64c0,1.49.37,2.59,1.87,2.59a12,12,0,0,0,1.72-.13Z" transform="translate(0)"/><path class="cls-10" d="M361,76.65h-6.71v0a2,2,0,0,0,2.17,2.3c1.32,0,3.19-.11,4-.19h.06c.23,0,.4.1.4.33v1.6c0,.34-.09.49-.44.57a16,16,0,0,1-4.32.51c-2.54,0-5.28-1.35-5.28-5.41V74.92c0-3.38,2-5.53,5.32-5.53s5.2,2.36,5.2,5.53v1.22c0,.32-.17.51-.44.51m-2.88-2.19c0-1.56-.72-2.33-1.9-2.33s-1.93.8-1.93,2.33v.09h3.83Z" transform="translate(0)"/><path class="cls-10" d="M373.65,81.62h-1a.42.42,0,0,1-.42-.43V74.27c0-2.1-.89-2.75-2.25-2.75a8.18,8.18,0,0,0-2.91.58v9.09a.45.45,0,0,1-.42.43h-1a.42.42,0,0,1-.4-.43v-15a.41.41,0,0,1,.4-.42h1.05a.41.41,0,0,1,.4.42v4.34a8.84,8.84,0,0,1,3.22-.65c2.23,0,3.79,1.28,3.79,4.37v6.92a.42.42,0,0,1-.42.43" transform="translate(0)"/><path class="cls-10" d="M381.17,81.76c-3.1,0-4.67-2-4.67-5.13V75c0-3.09,1.57-5.13,4.67-5.13s4.69,2,4.69,5.13v1.6c0,3.09-1.6,5.13-4.69,5.13M384,75c0-2.15-.87-3.51-2.84-3.51s-2.82,1.34-2.82,3.51v1.6c0,2.14.84,3.51,2.82,3.51S384,78.8,384,76.63Z" transform="translate(0)"/><path class="cls-10" d="M397.59,71.45l-.76.15a3,3,0,0,1,.72,2.17v.16c0,2.32-1.43,3.6-4.67,3.6a5.91,5.91,0,0,1-2.44-.42.77.77,0,0,0-.53.72c0,.36.17.54.65.67l3.14.8c2.06.53,4,1.12,4,3.09v.17c0,2-1.35,3.26-4.8,3.26s-4.84-1.28-4.84-3.34v-.19a3.38,3.38,0,0,1,1.33-2.67l-.15-.07a1.73,1.73,0,0,1-1-1.64v0a1.72,1.72,0,0,1,.87-1.51,3.11,3.11,0,0,1-1-2.45v-.16c0-1.88,1.05-3.73,4.67-3.73h4.61a.48.48,0,0,1,.48.47v.54c0,.28-.15.36-.38.4m-1.7,10.94c0-.82-.68-1.15-2.57-1.64l-2.38-.61a2.52,2.52,0,0,0-1,2.15v.19c0,1.18.7,1.91,3,1.91s2.95-.67,2.95-1.83Zm-.17-8.62c0-1.27-.57-2.25-2.84-2.25S390,72.59,390,73.77v.16c0,.93.42,2.15,2.84,2.15,2.27,0,2.84-.88,2.84-2.15Z" transform="translate(0)"/><path class="cls-10" d="M408.68,76.42h-7.05v.29c0,2.51,1,3.43,2.93,3.43a28.32,28.32,0,0,0,3.74-.23h.11a.3.3,0,0,1,.33.3v.71c0,.27-.08.42-.42.48a18.39,18.39,0,0,1-3.76.36c-2.42,0-4.78-1.13-4.78-5.05V74.82c0-3,1.66-4.92,4.67-4.92s4.63,1.93,4.63,4.92V76c0,.28-.15.47-.4.47m-1.47-1.6c0-2.38-.91-3.3-2.76-3.3s-2.82,1-2.82,3.3V75h5.58Z" transform="translate(0)"/><path class="cls-10" d="M415,81.76a16.4,16.4,0,0,1-3.32-.31c-.28-.07-.44-.19-.44-.42v-.74a.34.34,0,0,1,.37-.32h.09a32.83,32.83,0,0,0,3.3.24c1.37,0,2.09-.36,2.09-1.5,0-.63-.39-1-1.58-1.75l-2.13-1.26c-1.28-.78-2.14-1.68-2.14-3,0-2.18,1.64-2.79,3.8-2.79a19.64,19.64,0,0,1,3.29.27.4.4,0,0,1,.4.42v.69a.32.32,0,0,1-.36.36h-.06c-.74-.06-2.09-.17-3.27-.17s-1.95.15-1.95,1.22c0,.63.48,1,1.45,1.6l2.08,1.24c1.75,1,2.32,1.94,2.32,3.18,0,2.15-1.58,3.05-3.94,3.05" transform="translate(0)"/><path class="cls-10" d="M428.14,81.53a14.86,14.86,0,0,1-2.63.23c-2.86,0-4.48-2-4.48-5.11V75c0-3.09,1.6-5.11,4.48-5.11a15,15,0,0,1,2.63.23c.34.06.42.17.42.46v.76a.32.32,0,0,1-.35.31h-.09a21.53,21.53,0,0,0-2.61-.14c-1.68,0-2.63,1.11-2.63,3.49v1.64c0,2.36.93,3.49,2.63,3.49a19.62,19.62,0,0,0,2.61-.15h.09a.32.32,0,0,1,.35.32v.76c0,.27-.08.4-.42.46" transform="translate(0)"/><path class="cls-10" d="M439.36,81.62h-1a.42.42,0,0,1-.42-.43V74.27c0-2.1-.89-2.75-2.26-2.75a8.17,8.17,0,0,0-2.9.58v9.09a.45.45,0,0,1-.42.43h-1a.42.42,0,0,1-.4-.43v-15a.41.41,0,0,1,.4-.42h1.05a.41.41,0,0,1,.4.42v4.34A8.8,8.8,0,0,1,436,69.9c2.23,0,3.79,1.28,3.79,4.37v6.92a.42.42,0,0,1-.42.43" transform="translate(0)"/><path class="cls-10" d="M446.66,81.76c-3.09,0-4.67-2-4.67-5.13V75c0-3.09,1.58-5.13,4.67-5.13s4.69,2,4.69,5.13v1.6c0,3.09-1.59,5.13-4.69,5.13M449.5,75c0-2.15-.86-3.51-2.84-3.51s-2.82,1.34-2.82,3.51v1.6c0,2.14.85,3.51,2.82,3.51s2.84-1.34,2.84-3.51Z" transform="translate(0)"/><path class="cls-10" d="M458.08,81.76c-3.09,0-4.67-2-4.67-5.13V75c0-3.09,1.58-5.13,4.67-5.13s4.7,2,4.7,5.13v1.6c0,3.09-1.6,5.13-4.7,5.13M460.92,75c0-2.15-.86-3.51-2.84-3.51s-2.82,1.34-2.82,3.51v1.6c0,2.14.85,3.51,2.82,3.51s2.84-1.34,2.84-3.51Z" transform="translate(0)"/><path class="cls-10" d="M466.42,81.62h-1.09a.41.41,0,0,1-.38-.43v-15a.38.38,0,0,1,.38-.4h1.09a.38.38,0,0,1,.38.4v15a.41.41,0,0,1-.38.43" transform="translate(0)"/></g></g></g><path class="cls-3" d="M106.45,82.14a13.64,13.64,0,0,1-1.73-.15v3.65a.42.42,0,0,1-.42.42h-2.55a.44.44,0,0,1-.44-.42V70.88c0-.34.09-.49.65-.61a19.54,19.54,0,0,1,4.49-.55c3.41,0,5.28,2,5.28,5.39v1.64C111.73,80.06,110,82.14,106.45,82.14Zm1.87-7c0-1.5-.38-2.57-1.87-2.57a12.77,12.77,0,0,0-1.73.1v6.57a14.39,14.39,0,0,0,1.73.13c1.49,0,1.87-1.12,1.87-2.59Z" transform="translate(0)"/><path class="cls-3" d="M118.83,82.14c-3.41,0-5.29-2.13-5.29-5.47V75.19c0-3.35,1.88-5.47,5.29-5.47s5.26,2.12,5.26,5.47v1.48C124.09,80,122.24,82.14,118.83,82.14Zm1.87-7c0-1.7-.65-2.57-1.87-2.57s-1.9.87-1.9,2.57v1.48c0,1.7.68,2.59,1.9,2.59s1.87-.89,1.87-2.59Z" transform="translate(0)"/><path class="cls-3" d="M141.88,70.33,140,80.48A1.63,1.63,0,0,1,138.16,82h-1.29a1.69,1.69,0,0,1-1.77-1.35l-1.41-5.49c0-.11,0-.11-.1-.11s-.09,0-.11.11l-1.41,5.49A1.68,1.68,0,0,1,130.3,82H129a1.63,1.63,0,0,1-1.85-1.47l-1.88-10.15v-.09a.33.33,0,0,1,.32-.35h2.55c.25,0,.4,0,.44.35l1.24,8c0,.16.08.27.13.27s.12-.08.16-.27l1.42-5.56c.19-.74.5-1,1.18-1h1.72c.68,0,1,.21,1.18,1L137,78.25c0,.19.11.27.17.27s.11-.11.13-.27l1.24-8c0-.31.19-.35.44-.35h2.55a.32.32,0,0,1,.31.35Z" transform="translate(0)"/><path class="cls-3" d="M153.11,77h-6.72v0a2,2,0,0,0,2.17,2.3c1.32,0,3.2-.11,4-.19h.06c.24,0,.4.11.4.34v1.6c0,.33-.08.48-.44.57a16.36,16.36,0,0,1-4.31.5c-2.55,0-5.29-1.35-5.29-5.41V75.26c0-3.4,2-5.54,5.33-5.54s5.2,2.36,5.2,5.54v1.22A.44.44,0,0,1,153.11,77Zm-2.89-2.19c0-1.56-.71-2.34-1.89-2.34s-1.94.8-1.94,2.34v.09h3.83Z" transform="translate(0)"/><path class="cls-3" d="M162.05,72.54h-.16a5.67,5.67,0,0,0-2.72.74v8.23a.44.44,0,0,1-.42.44H156.2a.46.46,0,0,1-.44-.44V70.31a.42.42,0,0,1,.42-.42h2.51a.42.42,0,0,1,.42.42v.42a4.46,4.46,0,0,1,2.84-1,.42.42,0,0,1,.42.42v2C162.37,72.33,162.24,72.54,162.05,72.54Z" transform="translate(0)"/><path class="cls-3" d="M173.53,77h-6.72v0a2,2,0,0,0,2.17,2.3c1.33,0,3.2-.11,4-.19h.07c.23,0,.4.11.4.34v1.6a.49.49,0,0,1-.44.57,16.44,16.44,0,0,1-4.32.5c-2.55,0-5.29-1.35-5.29-5.41V75.26c0-3.4,2-5.54,5.33-5.54s5.2,2.36,5.2,5.54v1.22A.44.44,0,0,1,173.53,77Zm-2.89-2.19c0-1.56-.71-2.34-1.89-2.34s-1.94.8-1.94,2.34v.09h3.83Z" transform="translate(0)"/><path class="cls-3" d="M185.57,81.59a19.45,19.45,0,0,1-4.48.55c-3.41,0-5.29-2-5.29-5.39V75.11c0-3.31,1.73-5.39,5.29-5.39a15.33,15.33,0,0,1,1.72.14V66.22a.42.42,0,0,1,.43-.42h2.54a.44.44,0,0,1,.45.42V81C186.23,81.32,186.14,81.47,185.57,81.59Zm-2.76-9a16.53,16.53,0,0,0-1.72-.1c-1.5,0-1.88,1.09-1.88,2.57v1.64c0,1.5.38,2.59,1.88,2.59a10.67,10.67,0,0,0,1.72-.13Z" transform="translate(0)"/><path class="cls-3" d="M199.36,82.14a19.45,19.45,0,0,1-4.48-.55c-.57-.12-.65-.27-.65-.61V66.22a.44.44,0,0,1,.44-.42h2.55a.42.42,0,0,1,.42.42v3.64a15.33,15.33,0,0,1,1.72-.14c3.56,0,5.29,2.08,5.29,5.39v1.64C204.65,80.16,202.77,82.14,199.36,82.14Zm1.88-7c0-1.48-.38-2.57-1.88-2.57a16.53,16.53,0,0,0-1.72.1v6.57a10.67,10.67,0,0,0,1.72.13c1.5,0,1.88-1.09,1.88-2.59Z" transform="translate(0)"/><path class="cls-3" d="M217.09,70.37l-3.54,12.4c-.65,2.28-1.51,3.43-4.61,3.43a10.81,10.81,0,0,1-2.54-.33c-.24-.09-.45-.15-.45-.38V83.78a.41.41,0,0,1,.42-.4h0c.69.05,1.93.17,2.63.17a1.25,1.25,0,0,0,1.39-1.09l.19-.66h-.32c-.78,0-1.43-.12-2-2l-2.78-9.48a.41.41,0,0,1,0-.15c0-.21.13-.33.42-.33h2.8a.43.43,0,0,1,.4.4l1.9,7.91c.06.3.13.4.25.4h.19l2-8.31a.46.46,0,0,1,.44-.4h2.8a.39.39,0,0,1,.4.38S217.09,70.33,217.09,70.37Z" transform="translate(0)"/></g></g></svg>