<svg xmlns="http://www.w3.org/2000/svg" viewBox="-17504.389 -14487.69 235.402 30.881"><defs><style>.a{fill:#0ac;}</style></defs><g transform="translate(-17537 -14538)"><path class="a" d="M76.987,51.047a15.786,15.786,0,0,0-7.755-8.037A14.927,14.927,0,0,0,63.5,41.6h-.8a14.863,14.863,0,0,0-6.2,1.316,15.506,15.506,0,0,0-4.982,3.525,15.258,15.258,0,0,0-3.243,5.17,15.727,15.727,0,0,0-.987,6.251,15.358,15.358,0,0,0,1.41,5.734,15.786,15.786,0,0,0,8.037,7.755,12.732,12.732,0,0,0,5.358,1.128H78.115V56.452A12.8,12.8,0,0,0,76.987,51.047Zm-4.465,3.807H62.088v4.277h5.969a6.423,6.423,0,0,1-1.269,1.974,5.78,5.78,0,1,1-.094-8.272l.188.188h5.123l-.517-.893a10.159,10.159,0,0,0-6.157-4.794,10.92,10.92,0,0,0-8.46,1.316,6.827,6.827,0,0,0-2.585,2.585c-2.632,4.418-2.162,9.494,1.175,12.925a9.879,9.879,0,0,0,7.191,3.008,11.479,11.479,0,0,0,5.64-1.551,7.144,7.144,0,0,0,2.585-2.444,11.41,11.41,0,0,0,1.645-3.948H74.4a11.952,11.952,0,0,1-23.689-1.551A11.7,11.7,0,0,1,54,48.838a11.923,11.923,0,0,1,8.648-3.76h.611a11.875,11.875,0,0,1,11.092,9.776Z" transform="translate(-14.657 8.71)"/><path class="a" d="M136.758,67.027H125.712v.094c0,1.974.8,4.277,4.042,4.277,2.491,0,4.794-.188,6.2-.329h.094a.547.547,0,0,1,.611.517v2.256c0,.564-.094.8-.705.893a29.3,29.3,0,0,1-6.58.564c-3.384,0-8.178-1.833-8.178-8.507V64.3c0-5.264,2.961-8.6,8.131-8.6,5.217,0,8.037,3.572,8.037,8.6v1.88C137.463,66.745,137.228,67.027,136.758,67.027Zm-3.807-3.29c0-2.632-1.457-4.183-3.572-4.183s-3.619,1.5-3.619,4.183v.141h7.191Z" transform="translate(-53.841 1.237)"/><path class="a" d="M178.952,74.912h-3.1a.683.683,0,0,1-.658-.705V63.161c0-2.961-.282-3.807-2.867-3.807a8.507,8.507,0,0,0-3.807,1.222V74.16a.683.683,0,0,1-.658.705h-3.1a.683.683,0,0,1-.658-.705V56.44a.643.643,0,0,1,.658-.658h2.961a.643.643,0,0,1,.658.658v.705a8.712,8.712,0,0,1,5.5-1.645c4.888,0,5.875,3.29,5.875,7.567V74.113A.9.9,0,0,1,178.952,74.912Z" transform="translate(-76.577 1.343)"/><path class="a" d="M213.415,70.931a13.205,13.205,0,0,1-2.3.235c-3.807,0-5.358-.846-5.358-5.358V55.185l-3.2-.47a.672.672,0,0,1-.658-.658v-1.5a.643.643,0,0,1,.658-.658h3.2V49.122a.672.672,0,0,1,.658-.658l3.149-.564h.141a.532.532,0,0,1,.564.517V51.9h3.055a.643.643,0,0,1,.658.658v1.974a.643.643,0,0,1-.658.658h-3.055V65.808c0,1.692.094,1.88,1.316,1.88h1.786c.423,0,.705.188.705.517V70.32C214.073,70.649,213.838,70.837,213.415,70.931Z" transform="translate(-96.611 5.371)"/><path class="a" d="M238.507,67.81h-3.149a.683.683,0,0,1-.658-.705V42.758a.643.643,0,0,1,.658-.658h3.149a.643.643,0,0,1,.658.658V67.1A.755.755,0,0,1,238.507,67.81Z" transform="translate(-113.994 8.445)"/><path class="a" d="M268.058,67.027H257.012v.094c0,1.974.8,4.277,4.042,4.277,2.491,0,4.794-.188,6.2-.329h.094a.547.547,0,0,1,.611.517v2.256c0,.564-.094.8-.705.893a29.3,29.3,0,0,1-6.58.564c-3.384,0-8.178-1.833-8.178-8.507V64.3c0-5.264,2.961-8.6,8.131-8.6,5.217,0,8.037,3.572,8.037,8.6v1.88C268.716,66.745,268.528,67.027,268.058,67.027Zm-3.807-3.29c0-2.632-1.457-4.183-3.572-4.183s-3.619,1.5-3.619,4.183v.141h7.191v-.141Z" transform="translate(-123.428 1.237)"/><path class="a" d="M300.509,75.3a30.411,30.411,0,0,1-6.063-.658.767.767,0,0,1-.658-.8V71.822a.572.572,0,0,1,.564-.564h.141c1.645.188,4.653.376,5.687.376,2.115,0,2.4-.705,2.4-1.645,0-.658-.423-1.034-1.5-1.739l-4.653-2.82a5.628,5.628,0,0,1-2.82-4.653c0-3.384,2.115-5.076,6.439-5.076a25.124,25.124,0,0,1,6.016.658.73.73,0,0,1,.611.8v1.974c0,.423-.188.658-.564.658h-.141a47.988,47.988,0,0,0-5.593-.423c-1.645,0-2.35.376-2.35,1.41,0,.564.517.893,1.363,1.41l4.418,2.726c2.82,1.739,3.243,3.431,3.243,5.123C307.183,72.95,304.974,75.3,300.509,75.3Z" transform="translate(-145.21 1.237)"/><path class="a" d="M338.015,70.931a13.205,13.205,0,0,1-2.3.235c-3.807,0-5.358-.846-5.358-5.358V55.185l-3.2-.47a.672.672,0,0,1-.658-.658v-1.5a.642.642,0,0,1,.658-.658h3.2V49.122a.672.672,0,0,1,.658-.658l3.149-.564h.141a.532.532,0,0,1,.564.517V51.9h3.055a.643.643,0,0,1,.658.658v1.974a.643.643,0,0,1-.658.658h-3.055V65.808c0,1.692.094,1.88,1.316,1.88h1.786c.423,0,.705.188.705.517V70.32C338.626,70.649,338.438,70.837,338.015,70.931Z" transform="translate(-162.647 5.371)"/><path class="a" d="M373.747,75.283h-3.1a.643.643,0,0,1-.658-.658v-.8a8.833,8.833,0,0,1-5.311,1.692,5.8,5.8,0,0,1-4.183-1.41c-1.269-1.269-1.692-3.337-1.692-6.157V56.905a.683.683,0,0,1,.658-.705h3.1a.683.683,0,0,1,.658.705V67.95c0,1.692.141,2.679.8,3.243a2.847,2.847,0,0,0,2.115.611,9.226,9.226,0,0,0,3.807-1.363V56.905a.683.683,0,0,1,.658-.705h3.1a.683.683,0,0,1,.658.705v17.72A.56.56,0,0,1,373.747,75.283Z" transform="translate(-179.765 0.972)"/><path class="a" d="M414.9,67.2a27.963,27.963,0,0,1-6.815.893c-5.452,0-8.084-3.2-8.084-8.507V57c0-5.264,2.632-8.507,8.084-8.507a22.7,22.7,0,0,1,3.243.235V42.758a.643.643,0,0,1,.658-.658h3.1a.643.643,0,0,1,.658.658V66.306C415.792,66.823,415.651,67.011,414.9,67.2Zm-3.572-14.805a27.008,27.008,0,0,0-3.243-.235c-2.914,0-3.619,2.068-3.619,4.841v2.585c0,2.773.705,4.841,3.619,4.841a19.15,19.15,0,0,0,3.243-.235Z" transform="translate(-201.6 8.445)"/><path class="a" d="M457.158,67.027H446.112v.094c0,1.974.8,4.277,4.042,4.277,2.491,0,4.794-.188,6.2-.329h.094a.547.547,0,0,1,.611.517v2.256c0,.564-.094.8-.705.893a29.294,29.294,0,0,1-6.58.564c-3.384,0-8.178-1.833-8.178-8.507V64.3c0-5.264,2.961-8.6,8.131-8.6,5.217,0,8.037,3.572,8.037,8.6v1.88C457.863,66.745,457.628,67.027,457.158,67.027Zm-3.807-3.29c0-2.632-1.457-4.183-3.572-4.183s-3.619,1.5-3.619,4.183v.141h7.191v-.141Z" transform="translate(-223.648 1.237)"/><path class="a" d="M499.352,74.912h-3.1a.683.683,0,0,1-.658-.705V63.161c0-2.961-.282-3.807-2.867-3.807a8.508,8.508,0,0,0-3.807,1.222V74.16a.683.683,0,0,1-.658.705h-3.1a.683.683,0,0,1-.658-.705V56.44a.643.643,0,0,1,.658-.658h2.961a.643.643,0,0,1,.658.658v.705a8.712,8.712,0,0,1,5.5-1.645c4.888,0,5.875,3.29,5.875,7.567V74.113A.9.9,0,0,1,499.352,74.912Z" transform="translate(-246.384 1.343)"/><path class="a" d="M533.815,70.931a13.205,13.205,0,0,1-2.3.235c-3.807,0-5.358-.846-5.358-5.358V55.185l-3.2-.47a.672.672,0,0,1-.658-.658v-1.5a.642.642,0,0,1,.658-.658h3.2V49.122a.672.672,0,0,1,.658-.658l3.149-.564h.141a.532.532,0,0,1,.564.517V51.9h3.055a.643.643,0,0,1,.658.658v1.974a.643.643,0,0,1-.658.658h-3.1V65.808c0,1.692.094,1.88,1.316,1.88h1.786c.423,0,.705.188.705.517V70.32C534.473,70.649,534.238,70.837,533.815,70.931Z" transform="translate(-266.418 5.371)"/></g></svg>