<svg id="Laag_1" data-name="Laag 1" xmlns="http://www.w3.org/2000/svg" viewBox="0 0 767.36 151.55"><defs><style>.cls-1{fill:#00aaca;}.cls-2{fill:#b9ce00;}.cls-3{fill:#f9b000;}.cls-4{fill:#d7007f;}.cls-5{fill:#fff;}</style></defs><title>logo_gentlestudent_site</title><path class="cls-1" d="M758.21,148.77v-6.11c0-1-.78-1.46-2-1.46H751c-3.5,0-3.79-.58-3.79-5.44V105.28H756a2,2,0,0,0,1.94-1.94V97.62A2,2,0,0,0,756,95.68h-8.74v-10a1.4,1.4,0,0,0-1.55-1.46h-.39l-9,1.55a2.09,2.09,0,0,0-1.94,2v8h-9.12a2,2,0,0,0-2,1.94V102a2.1,2.1,0,0,0,2,2l9.12,1.35v30.48c0,13,4.47,15.44,15.43,15.44a41,41,0,0,0,6.6-.68c1.27-.2,1.85-.78,1.85-1.75m-43.2-.39V116.74C715,104.41,712.2,95,698.22,95c-6.4,0-10.09,1.06-15.72,4.65v-2a2,2,0,0,0-1.94-1.94h-8.45a1.94,1.94,0,0,0-1.94,1.94v50.76a2,2,0,0,0,1.94,2H681a2,2,0,0,0,1.94-2v-39c4.08-2.13,7.67-3.49,11-3.49,7.48,0,8.25,2.42,8.25,10.87v31.64a2,2,0,0,0,1.94,2h8.93a2,2,0,0,0,1.94-2m-68.72-30H625.72V118c0-7.67,4.36-11.94,10.38-11.94s10.19,4.37,10.19,11.94Zm12.91,6.7v-5.44c0-14.46-8.15-24.65-23.1-24.65s-23.29,9.51-23.29,24.65v7.18c0,19.13,13.78,24.37,23.49,24.37a86.66,86.66,0,0,0,18.83-1.65c1.74-.3,2-1,2-2.53v-6.4c0-1-.78-1.46-1.75-1.46h-.29c-4.08.39-10.78,1-17.87,1-9.31,0-11.64-6.7-11.64-12.33v-.29h31.64c1.36,0,1.94-.87,1.94-2.42M589,140a56.18,56.18,0,0,1-9.31.68c-8.35,0-10.39-5.92-10.39-13.88v-7.47c0-8,2-13.88,10.39-13.88a80.38,80.38,0,0,1,9.31.68Zm12.82,6V78.49a2,2,0,0,0-1.94-1.94H591a2,2,0,0,0-2,1.94V95.68a72.47,72.47,0,0,0-9.31-.68c-15.63,0-23.2,9.22-23.2,24.36v7.47c0,15.15,7.57,24.37,23.2,24.37a82.91,82.91,0,0,0,19.51-2.53c2.23-.58,2.62-1.16,2.62-2.62m-56,2.43V97.71a2,2,0,0,0-1.94-2H535a2,2,0,0,0-1.94,2v38.83c-2.72,1.46-7.38,3.88-11,3.88-3,0-4.66-.58-6-1.74-1.84-1.65-2.23-4.47-2.23-9.32V97.71a2,2,0,0,0-1.94-2h-8.93a2,2,0,0,0-1.94,2v31.65c0,8,1.26,14.07,4.85,17.66,2.82,2.82,7.08,4.08,11.94,4.08,6.21,0,10.19-1.55,15.24-4.85v2.23a1.94,1.94,0,0,0,1.94,1.94h8.93a1.94,1.94,0,0,0,1.94-1.94m-53.58.29v-6.11c0-1-.77-1.46-2-1.46h-5.14c-3.5,0-3.79-.58-3.79-5.44V105.28H490a1.94,1.94,0,0,0,1.94-1.94V97.62A1.94,1.94,0,0,0,490,95.68h-8.74v-10a1.4,1.4,0,0,0-1.55-1.46h-.39l-9,1.55a2.1,2.1,0,0,0-1.94,2v8h-9.12a1.94,1.94,0,0,0-1.94,1.94V102a2.09,2.09,0,0,0,1.94,2l9.12,1.35v30.48c0,13,4.47,15.44,15.44,15.44a41.08,41.08,0,0,0,6.6-.68c1.26-.2,1.84-.78,1.84-1.75M451,136.05c0-5-1.17-9.8-9.32-14.75L429,113.54c-2.42-1.46-3.88-2.43-3.88-4,0-3,2-4.08,6.7-4.08a145.4,145.4,0,0,1,16,1.16h.38c1,0,1.56-.68,1.56-1.84V99.17A2.11,2.11,0,0,0,448,96.94,71.84,71.84,0,0,0,430.71,95c-12.33,0-18.44,4.85-18.44,14.56,0,5.63,3.4,10.48,8.15,13.39l13.3,8.15c3.11,2,4.27,3.11,4.27,5,0,2.63-.87,4.66-6.89,4.66-2.91,0-11.65-.48-16.31-1.07h-.39a1.62,1.62,0,0,0-1.65,1.56V147a2.19,2.19,0,0,0,1.85,2.23c5.43,1.46,13.59,1.95,17.37,1.95,12.72,0,19-6.7,19-15.15m-60.67-17.66H369.75V118c0-7.67,4.37-11.94,10.39-11.94s10.19,4.37,10.19,11.94Zm12.91,6.7v-5.44c0-14.46-8.15-24.65-23.1-24.65s-23.29,9.51-23.29,24.65v7.18c0,19.13,13.78,24.37,23.48,24.37a86.7,86.7,0,0,0,18.84-1.65c1.74-.3,2-1,2-2.53v-6.4c0-1-.77-1.46-1.74-1.46h-.29c-4.08.39-10.78,1-17.86,1-9.32,0-11.65-6.7-11.65-12.33v-.29H401.3c1.36,0,1.94-.87,1.94-2.42m-57.85,23.29V78.49a1.86,1.86,0,0,0-1.84-1.94h-9a2,2,0,0,0-1.94,1.94v69.89a2,2,0,0,0,1.94,2h9a2,2,0,0,0,1.84-2m-22,.39v-6.11c0-1-.78-1.46-2-1.46h-5.14c-3.5,0-3.79-.58-3.79-5.44V105.28h8.74a2,2,0,0,0,1.94-1.94V97.62a2,2,0,0,0-1.94-1.94h-8.74v-10a1.4,1.4,0,0,0-1.55-1.46h-.39l-9,1.55a2.09,2.09,0,0,0-1.94,2v8h-9.12a1.94,1.94,0,0,0-1.94,1.94V102a2.09,2.09,0,0,0,1.94,2l9.12,1.35v30.48c0,13,4.47,15.44,15.43,15.44a40.86,40.86,0,0,0,6.6-.68c1.27-.2,1.85-.78,1.85-1.75m-43.2-.39V116.74c0-12.33-2.81-21.74-16.79-21.74-6.4,0-10.09,1.06-15.72,4.65v-2a2,2,0,0,0-1.94-1.94h-8.45a2,2,0,0,0-1.94,1.94v50.76a2,2,0,0,0,1.94,2h8.93a2,2,0,0,0,1.94-2v-39c4.08-2.13,7.67-3.49,11-3.49,7.48,0,8.25,2.42,8.25,10.87v31.64a2,2,0,0,0,1.94,2h8.93a2,2,0,0,0,1.94-2m-68.72-30H190.87V118c0-7.67,4.36-11.94,10.38-11.94s10.19,4.37,10.19,11.94Zm12.91,6.7v-5.44c0-14.46-8.15-24.65-23.1-24.65S178,104.51,178,119.65v7.18c0,19.13,13.78,24.37,23.49,24.37a86.66,86.66,0,0,0,18.83-1.65c1.74-.3,2-1,2-2.53v-6.4c0-1-.78-1.46-1.75-1.46h-.29c-4.08.39-10.78,1-17.86,1-9.32,0-11.65-6.7-11.65-12.33v-.29h31.64c1.36,0,1.94-.87,1.94-2.42M166,147.22V114.6a2,2,0,0,0-1.94-1.94h-9.61a1.87,1.87,0,0,0-1.85,1.94v24.76c-3,.19-6,.28-9.61.28-5.72,0-12.42-4.46-12.42-18.24v-14c0-13.78,6.21-18.35,12.71-18.35,9.32,0,16,.39,20.48.78h.3c1.55,0,1.94-.68,1.94-2v-6.5c0-1.26-.58-1.75-1.85-2a128.14,128.14,0,0,0-20.87-1.75c-11.55,0-26.3,6.9-26.3,29.9v14c0,22.91,15.53,29.8,26,29.8,10,0,16.31-.68,21.16-1.65a2.15,2.15,0,0,0,1.85-2.33" transform="translate(-117 -76.55)"/><polygon class="cls-2" points="166.04 149.11 175.09 149.11 175.09 140.06 166.07 140.06 166.04 149.11"/><rect class="cls-2" x="166.04" y="121.95" width="9.05" height="9.05"/><path class="cls-3" d="M264.86,216.53h-4.57a4.56,4.56,0,1,1,4.57-4.56Zm-4.57-18.25a13.69,13.69,0,0,0,0,27.38H274V212a13.68,13.68,0,0,0-13.69-13.69" transform="translate(-117 -76.55)"/><path class="cls-1" d="M315.77,213.26h-1.9c-2.33,0-2.93.8-2.93,2.43v.3c0,1.4.7,1.67,2.1,1.67a6.16,6.16,0,0,0,2.73-.73Zm4.64,8.17h-3.74a.67.67,0,0,1-.66-.67v-.53a7.39,7.39,0,0,1-4.64,1.5c-2.9,0-5.71-1.4-5.71-5.74v-.3c0-3.9,2.51-5.64,8.21-5.64h1.8v-1.2c0-1.9-.93-2.3-2.5-2.3-2.14,0-4.5.13-5.54.23h-.16a.54.54,0,0,1-.6-.6v-2.7a.74.74,0,0,1,.63-.73,26.23,26.23,0,0,1,5.77-.7c4.81,0,7.81,1.93,7.81,6.8v11.91a.67.67,0,0,1-.67.67" transform="translate(-117 -76.55)"/><path class="cls-1" d="M335.73,206.52h-.27a9.09,9.09,0,0,0-4.31,1.16v13a.69.69,0,0,1-.66.7h-4a.72.72,0,0,1-.7-.7V203a.67.67,0,0,1,.67-.67h4a.67.67,0,0,1,.66.67v.67a7.15,7.15,0,0,1,4.51-1.61.67.67,0,0,1,.67.67v3.17c0,.3-.2.64-.5.64" transform="translate(-117 -76.55)"/><path class="cls-1" d="M350.49,221.46a14.16,14.16,0,0,1-2.64.27c-3.67,0-5.6-1-5.6-5.7v-9.68l-2.67-.44a.77.77,0,0,1-.7-.7V203a.72.72,0,0,1,.7-.7h2.67v-2.73a.71.71,0,0,1,.67-.67l4.07-.7h.1a.57.57,0,0,1,.6.57v3.53h2.73a.67.67,0,0,1,.67.67v2.7a.67.67,0,0,1-.67.67h-2.73v9.71c0,1.33.1,1.57,1.1,1.57h1.63c.44,0,.7.2.7.56v2.61a.67.67,0,0,1-.63.66" transform="translate(-117 -76.55)"/><path class="cls-1" d="M365.74,210.09c0-2.47-1.14-3.71-3-3.71s-3.07,1.27-3.07,3.71v.13h6.07Zm4.57,3.47H359.67v.06c0,1.91.8,3.64,3.43,3.64,2.1,0,5.07-.17,6.41-.3h.1c.37,0,.63.17.63.53V220c0,.53-.13.77-.7.9a25.58,25.58,0,0,1-6.84.8c-4,0-8.37-2.13-8.37-8.57v-2.34c0-5.37,3.13-8.78,8.44-8.78,5.47,0,8.24,3.74,8.24,8.78v1.93c0,.51-.27.81-.7.81" transform="translate(-117 -76.55)"/><path class="cls-1" d="M391.45,203.08l-4.21,15.15c-.83,3-2.87,3.5-4.84,3.5s-4-.53-4.8-3.5l-4.17-15.15a.46.46,0,0,1,0-.2.54.54,0,0,1,.53-.57h4.4a.79.79,0,0,1,.7.7l2.88,13.08c.09.5.26.7.49.7s.44-.2.54-.7L385.81,203c.1-.4.36-.7.7-.7h4.4a.57.57,0,0,1,.57.57.46.46,0,0,1,0,.2" transform="translate(-117 -76.55)"/><path class="cls-1" d="M405.24,210.09c0-2.47-1.13-3.71-3-3.71s-3.07,1.27-3.07,3.71v.13h6.07Zm4.57,3.47H399.17v.06c0,1.91.8,3.64,3.44,3.64,2.1,0,5.07-.17,6.4-.3h.1c.37,0,.64.17.64.53V220c0,.53-.13.77-.7.9a25.69,25.69,0,0,1-6.84.8c-4,0-8.38-2.13-8.38-8.57v-2.34c0-5.37,3.14-8.78,8.44-8.78,5.48,0,8.24,3.74,8.24,8.78v1.93c0,.51-.26.81-.7.81" transform="translate(-117 -76.55)"/><path class="cls-1" d="M419.42,221.43h-4.07a.73.73,0,0,1-.7-.7V196.51a.7.7,0,0,1,.7-.67h4.07a.65.65,0,0,1,.64.67v24.22a.67.67,0,0,1-.64.7" transform="translate(-117 -76.55)"/><path class="cls-1" d="M435.21,206.68a25.17,25.17,0,0,0-2.74-.16c-2.37,0-3,1.73-3,4.07v2.6c0,2.37.6,4.1,3,4.1a18.62,18.62,0,0,0,2.74-.2Zm4.37,14.18a31.27,31.27,0,0,1-7.11.87c-5.41,0-8.38-3.13-8.38-8.54v-2.6c0-5.24,2.74-8.54,8.38-8.54a21.89,21.89,0,0,1,2.74.23v-5.77a.67.67,0,0,1,.66-.67h4a.7.7,0,0,1,.7.67v23.38c0,.54-.13.77-1,1" transform="translate(-117 -76.55)"/><path class="cls-1" d="M456.19,210.09c0-2.47-1.13-3.71-3-3.71s-3.07,1.27-3.07,3.71v.13h6.07Zm4.57,3.47H450.12v.06c0,1.91.8,3.64,3.44,3.64,2.1,0,5.07-.17,6.4-.3h.1c.37,0,.64.17.64.53V220c0,.53-.14.77-.7.9a25.69,25.69,0,0,1-6.84.8c-4,0-8.38-2.13-8.38-8.57v-2.34c0-5.37,3.14-8.78,8.44-8.78,5.48,0,8.24,3.74,8.24,8.78v1.93c0,.51-.26.81-.7.81" transform="translate(-117 -76.55)"/><path class="cls-1" d="M480.89,221.43h-1.61a.67.67,0,0,1-.66-.67v-11c0-3.34-1.41-4.37-3.57-4.37a12.9,12.9,0,0,0-4.61.93v14.41a.69.69,0,0,1-.66.67h-1.64a.67.67,0,0,1-.64-.67V197a.65.65,0,0,1,.64-.67h1.67a.64.64,0,0,1,.63.67v6.87a13.94,13.94,0,0,1,5.11-1c3.53,0,6,2,6,6.94v11a.67.67,0,0,1-.66.67" transform="translate(-117 -76.55)"/><path class="cls-1" d="M497.31,211c0-3.41-1.36-5.57-4.5-5.57s-4.47,2.13-4.47,5.57v2.53c0,3.41,1.33,5.57,4.47,5.57s4.5-2.13,4.5-5.57Zm-4.5,10.67c-4.91,0-7.41-3.23-7.41-8.14V211c0-4.91,2.5-8.14,7.41-8.14s7.44,3.23,7.44,8.14v2.53c0,4.91-2.54,8.14-7.44,8.14" transform="translate(-117 -76.55)"/><path class="cls-1" d="M515.89,209c0-2-.91-3.57-4.51-3.57s-4.5,1.71-4.5,3.57v.27c0,1.47.66,3.4,4.5,3.4,3.6,0,4.51-1.4,4.51-3.4Zm.26,13.68c0-1.3-1.07-1.83-4.07-2.6l-3.77-1a4,4,0,0,0-1.63,3.4v.3c0,1.87,1.1,3,4.8,3s4.67-1.07,4.67-2.91Zm2.71-17.35-1.21.24a4.62,4.62,0,0,1,1.14,3.43v.27c0,3.67-2.27,5.71-7.41,5.71a9.61,9.61,0,0,1-3.87-.67,1.21,1.21,0,0,0-.83,1.13c0,.57.26.87,1,1.07l5,1.27c3.27.83,6.41,1.77,6.41,4.9v.27c0,3.21-2.13,5.17-7.61,5.17-5.27,0-7.67-2-7.67-5.3v-.3a5.42,5.42,0,0,1,2.1-4.24l-.23-.1a2.75,2.75,0,0,1-1.54-2.6v0a2.75,2.75,0,0,1,1.37-2.41,4.93,4.93,0,0,1-1.54-3.87V209c0-3,1.67-5.9,7.41-5.9h7.31a.77.77,0,0,1,.77.73v.87c0,.43-.24.57-.6.63" transform="translate(-117 -76.55)"/><path class="cls-1" d="M534.1,210.65c0-3.77-1.43-5.23-4.37-5.23s-4.47,1.63-4.47,5.23v.3h8.84Zm2.34,2.54H525.26v.47c0,4,1.57,5.43,4.64,5.43a46.45,46.45,0,0,0,5.94-.36H536c.27,0,.54.13.54.47v1.13c0,.43-.13.67-.67.77a30.74,30.74,0,0,1-6,.56c-3.84,0-7.57-1.8-7.57-8v-3c0-4.77,2.63-7.8,7.4-7.8s7.34,3.07,7.34,7.8v1.8c0,.44-.23.74-.63.74" transform="translate(-117 -76.55)"/><path class="cls-1" d="M546.45,221.66a25.82,25.82,0,0,1-5.27-.5c-.44-.1-.7-.3-.7-.66v-1.17a.54.54,0,0,1,.6-.5h.13c1.6.2,4,.36,5.24.36,2.17,0,3.3-.56,3.3-2.36,0-1-.6-1.64-2.5-2.77l-3.37-2c-2-1.23-3.4-2.66-3.4-4.77,0-3.47,2.6-4.43,6-4.43a31,31,0,0,1,5.2.43c.44.07.63.3.63.67v1.1a.5.5,0,0,1-.56.56h-.1c-1.17-.1-3.31-.26-5.17-.26s-3.11.23-3.11,1.93c0,1,.77,1.64,2.3,2.54l3.31,2c2.77,1.63,3.67,3.07,3.67,5,0,3.4-2.5,4.83-6.24,4.83" transform="translate(-117 -76.55)"/><path class="cls-1" d="M567.3,221.3a24.25,24.25,0,0,1-4.17.36c-4.54,0-7.11-3.2-7.11-8.1V211c0-4.9,2.54-8.1,7.11-8.1a24.53,24.53,0,0,1,4.17.36c.53.1.67.27.67.74v1.2a.51.51,0,0,1-.57.5h-.13a32,32,0,0,0-4.14-.23c-2.67,0-4.17,1.76-4.17,5.53v2.61c0,3.73,1.47,5.54,4.17,5.54a31.93,31.93,0,0,0,4.14-.24h.13a.51.51,0,0,1,.57.5v1.2c0,.44-.14.64-.67.74" transform="translate(-117 -76.55)"/><path class="cls-1" d="M585.08,221.43h-1.59a.67.67,0,0,1-.67-.67v-11c0-3.34-1.41-4.37-3.57-4.37a12.9,12.9,0,0,0-4.61.93v14.41a.69.69,0,0,1-.66.67h-1.64a.66.66,0,0,1-.63-.67V197a.64.64,0,0,1,.63-.67H574a.64.64,0,0,1,.63.67v6.87a13.94,13.94,0,0,1,5.11-1c3.53,0,6,2,6,6.94v11a.67.67,0,0,1-.67.67" transform="translate(-117 -76.55)"/><path class="cls-1" d="M601.18,211c0-3.41-1.37-5.57-4.51-5.57s-4.47,2.13-4.47,5.57v2.53c0,3.41,1.34,5.57,4.47,5.57s4.51-2.13,4.51-5.57Zm-4.51,10.67c-4.9,0-7.4-3.23-7.4-8.14V211c0-4.91,2.5-8.14,7.4-8.14s7.44,3.23,7.44,8.14v2.53c0,4.91-2.53,8.14-7.44,8.14" transform="translate(-117 -76.55)"/><path class="cls-1" d="M619.29,211c0-3.41-1.37-5.57-4.51-5.57s-4.47,2.13-4.47,5.57v2.53c0,3.41,1.34,5.57,4.47,5.57s4.51-2.13,4.51-5.57Zm-4.51,10.67c-4.9,0-7.4-3.23-7.4-8.14V211c0-4.91,2.5-8.14,7.4-8.14s7.44,3.23,7.44,8.14v2.53c0,4.91-2.53,8.14-7.44,8.14" transform="translate(-117 -76.55)"/><path class="cls-1" d="M628,221.43h-1.73a.63.63,0,0,1-.6-.67V197a.6.6,0,0,1,.6-.63H628a.6.6,0,0,1,.6.63v23.79a.63.63,0,0,1-.6.67" transform="translate(-117 -76.55)"/><path class="cls-4" d="M804,96.05s-19.42,0-19.42,19.41v15.06s0,19.41,19.42,19.41H865s19.41,0,19.41-19.41V115.46s0-19.41-19.41-19.41Z" transform="translate(-117 -76.55)"/><path class="cls-5" d="M865.33,122.84h-5.48l2.24-9.25c.1-.37.19-.5.5-.5s.41.13.5.5Zm6.73,9.46a1.3,1.3,0,0,1,0-.15l-5.11-19.52a4.53,4.53,0,0,0-8.65,0l-5.11,19.52a1.3,1.3,0,0,1,0,.15.53.53,0,0,0,.56.53H857a.66.66,0,0,0,.59-.53l1.43-5.92h7.16l1.44,5.92a.66.66,0,0,0,.59.53h3.3a.53.53,0,0,0,.56-.53m-20.3-19.52v-2.46a.6.6,0,0,0-.63-.59H835.91a.6.6,0,0,0-.62.59v2.46a.57.57,0,0,0,.62.56h5.45v18.87a.62.62,0,0,0,.62.62h3.08a.63.63,0,0,0,.63-.62V113.34h5.44a.58.58,0,0,0,.63-.56M832.64,132v-2a.62.62,0,0,0-.62-.62h-6.35c-1.81,0-2.46-.62-2.46-2.68v-4h8.43a.63.63,0,0,0,.63-.62v-2.24a.63.63,0,0,0-.63-.62h-8.43v-3.37c0-2,.65-2.68,2.46-2.68H832a.62.62,0,0,0,.62-.62v-2c0-.43-.16-.59-.62-.65a28.91,28.91,0,0,0-5.92-.44c-4.05,0-7.19,1.09-7.19,6.38V126.7c0,5.29,3.14,6.38,7.19,6.38a28.91,28.91,0,0,0,5.92-.44c.46-.06.62-.21.62-.65m-21.85-5.7c0,2.18-1.25,3.21-5.23,3.21-.66,0-1.81-.06-2.56-.06v-6.85h4c2.92,0,3.83,1.59,3.83,3.3Zm-.13-9.83c0,1.58-.81,3-3.7,3h-4v-6.32c.66,0,1.53-.06,2.28-.06,4,0,5.38.81,5.38,3Zm4.36,9.9v-.53a4.79,4.79,0,0,0-3-4.74,4.86,4.86,0,0,0,2.87-4.7v-.62c0-4.7-4-6.32-9.59-6.32a39.5,39.5,0,0,0-5.2.31c-1,.16-1.4.56-1.4,1.68v19.62c0,1.15.46,1.49,1.49,1.68a32.19,32.19,0,0,0,5.39.34c5.79,0,9.46-1.77,9.46-6.72" transform="translate(-117 -76.55)"/></svg>