<svg xmlns="http://www.w3.org/2000/svg" viewBox="-15995 -13294.067 93.563 90.868"><defs><style>.a{fill:#a8a8a8;}.b{fill:#585857;}.c{fill:#fff;}.d{fill:#ffcc04;}</style></defs><g transform="translate(-16007.7 -13304.667)"><g transform="translate(12.7 10.6)"><g transform="translate(2.276 2.364)"><circle class="a" cx="43.158" cy="43.158" r="43.158"/></g><g transform="translate(2.276 2.364)"><path class="b" d="M58.458,14.526A41.932,41.932,0,1,1,16.526,56.458,41.993,41.993,0,0,1,58.458,14.526m0-1.226a43.158,43.158,0,1,0,43.158,43.158A43.189,43.189,0,0,0,58.458,13.3Z" transform="translate(-15.3 -13.3)"/></g><path class="b" d="M58.134,12.964A43.158,43.158,0,1,1,14.976,56.121,43.189,43.189,0,0,1,58.134,12.964m0-2.364a45.434,45.434,0,1,0,45.434,45.434A45.505,45.505,0,0,0,58.134,10.6Z" transform="translate(-12.7 -10.6)"/><g transform="translate(1.138 1.226)"><path class="c" d="M58.3,13.138A43.158,43.158,0,1,1,15.138,56.3,43.189,43.189,0,0,1,58.3,13.138M58.3,12a44.3,44.3,0,1,0,44.3,44.3A44.347,44.347,0,0,0,58.3,12Z" transform="translate(-14 -12)"/></g><g transform="translate(12.518 12.606)"><circle class="a" cx="32.915" cy="32.915" r="32.915"/></g><g transform="translate(12.518 12.606)"><path class="b" d="M59.915,26.138a31.69,31.69,0,1,1-31.69,31.69,31.738,31.738,0,0,1,31.69-31.69m0-1.138A32.915,32.915,0,1,0,92.831,57.915,32.877,32.877,0,0,0,59.915,25Z" transform="translate(-27 -25)"/></g><g transform="translate(10.155 10.242)"><path class="b" d="M59.579,24.664A32.915,32.915,0,1,1,26.664,57.579,32.877,32.877,0,0,1,59.579,24.664m0-2.364A35.279,35.279,0,1,0,94.858,57.579,35.343,35.343,0,0,0,59.579,22.3Z" transform="translate(-24.3 -22.3)"/></g><g transform="translate(11.38 11.38)"><path class="c" d="M59.754,24.826A32.915,32.915,0,1,1,26.838,57.741,32.877,32.877,0,0,1,59.754,24.826m0-1.226A34.054,34.054,0,1,0,93.807,57.654,34.092,34.092,0,0,0,59.754,23.6Z" transform="translate(-25.7 -23.6)"/></g><g transform="translate(36.592 4.902)"><path class="c" d="M55.988,20.877l-.7.175c-.088,0-.088,0-.088-.088l-.7-3.5c0-.088,0-.088.088-.088l.7-.175c.088,0,.088,0,.088.088l.7,3.5C56.076,20.877,56.076,20.877,55.988,20.877Z" transform="translate(-54.5 -16.325)"/><path class="c" d="M57.973,20.539a1.79,1.79,0,0,1-.963,0c-.088,0-.088,0-.088-.088l-.088-.525c0-.088,0-.088.088-.088h0c.175,0,.788-.088.963-.088.35-.088.438-.175.35-.438,0-.175-.088-.175-.35-.35L57.1,18.7a.893.893,0,0,1-.7-.875c-.088-.525.175-1.05,1.138-1.138a5.024,5.024,0,0,1,1.05-.088.086.086,0,0,1,.088.088l.088.525c0,.088,0,.088-.088.088h0c-.175,0-.7.088-1.05.088a.321.321,0,0,0-.35.35c0,.175.088.175.35.263l.7.263a.992.992,0,0,1,.788.875C59.287,19.751,59.024,20.364,57.973,20.539Z" transform="translate(-54.734 -16.25)"/><path class="c" d="M61.313,20.264a2.994,2.994,0,0,1-.963-.088c-.088,0-.088,0-.088-.088v-.525c0-.088,0-.088.088-.088h.963c.35,0,.438-.175.438-.35s-.088-.263-.35-.35l-.7-.35a1.114,1.114,0,0,1-.7-.875c0-.525.263-.963,1.226-1.05h1.05a.086.086,0,0,1,.088.088v.525c0,.088,0,.088-.088.088h-1.05c-.263,0-.35.088-.35.263s.088.175.35.35l.7.263a1.225,1.225,0,0,1,.788.963A1.423,1.423,0,0,1,61.313,20.264Z" transform="translate(-55.185 -16.237)"/><path class="c" d="M65,20.052c-.788,0-1.4-.35-1.4-1.488V16.288a.086.086,0,0,1,.088-.088h.7c.088,0,.088,0,.088.088v2.276c0,.525.088.7.613.7.438,0,.613-.175.613-.7V16.288a.086.086,0,0,1,.088-.088H66.4c.088,0,.088,0,.088.088v2.276C66.489,19.789,65.789,20.139,65,20.052Z" transform="translate(-55.634 -16.2)"/><path class="c" d="M69.8,20.349h-.963c-.613-.088-1.226-.263-1.138-1.226l.175-1.663a1.015,1.015,0,0,1,1.313-.963,4.755,4.755,0,0,1,.963.175.086.086,0,0,1,.088.088l-.088.438a.086.086,0,0,1-.088.088l-1.05-.088c-.263,0-.35.088-.35.35l-.088.438,1.313.088a.086.086,0,0,1,.088.088v.525a.086.086,0,0,1-.088.088l-1.313-.088-.088.525c0,.263.088.35.263.35l1.05.088a.086.086,0,0,1,.088.088l-.088.438C69.887,20.349,69.887,20.349,69.8,20.349Z" transform="translate(-56.143 -16.235)"/><path class="c" d="M73.6,21.014l-.788-.175a.086.086,0,0,1-.088-.088l-.438-1.4H72.2c-.088,0-.263-.088-.35-.088l-.263,1.226a.086.086,0,0,1-.088.088l-.613-.088A.086.086,0,0,1,70.8,20.4l.613-3.327c0-.175.088-.175.263-.175.263,0,.7.088,1.05.088.875.175,1.4.525,1.226,1.4v.088a1.032,1.032,0,0,1-.788.875l.525,1.488c0,.088,0,.088-.088.175ZM73.164,18.3c.088-.263-.175-.438-.525-.525a1.986,1.986,0,0,1-.35-.088l-.175.963c.088,0,.263.088.35.088.438.088.613,0,.7-.438Z" transform="translate(-56.531 -16.287)"/></g><g transform="translate(13.662 67.866)"><path class="c" d="M29.526,93.2l-.788-.788a1.2,1.2,0,0,1,0-1.838l1.4-1.226c.788-.7,1.313-.263,1.838.263a5.522,5.522,0,0,1,.613.875v.175l-.438.35h-.175l-.7-.875c-.175-.175-.263-.175-.525,0l-.35.35.963,1.138V91.8l-.438.35h-.175l-.963-1.138-.438.35c-.263.175-.263.35-.088.525l.7.875v.175l-.438.35C29.614,93.2,29.614,93.2,29.526,93.2Z" transform="translate(-28.306 -88.232)"/><path class="c" d="M32.692,96.481l-.35-.35c-.088-.088-.088-.175-.088-.35l.613-2.451v-.088h-.088L31.2,94.817c0,.088-.088.088-.175,0l-.438-.438c-.088,0-.088-.088,0-.175L33.3,91.491a.164.164,0,0,1,.263,0l.438.438a.322.322,0,0,1,.088.263l-.7,2.539v.088h.088l1.663-1.663h.175l.438.438c.088,0,.088.088,0,.175l-2.714,2.714A.266.266,0,0,1,32.692,96.481Z" transform="translate(-28.583 -88.536)"/><path class="c" d="M38.2,96.542l-.7-.613-2.013,2.539c0,.088-.088.088-.175,0l-.525-.438c-.088,0-.088-.088,0-.175L36.8,95.316l-.7-.613c-.088,0-.088-.088,0-.175l.35-.438c0-.088.088-.088.175,0l2.189,1.751c.088,0,.088.088,0,.175l-.35.438A.322.322,0,0,1,38.2,96.542Z" transform="translate(-29.106 -88.86)"/><path class="c" d="M39.729,101.757l-.7-.438c-.088,0,0-.088,0-.175l.175-1.576h-.088c-.088-.088-.263-.175-.35-.263l-.788,1.138c0,.088-.088.088-.175,0l-.613-.438c-.088,0-.088-.088,0-.175l2.1-3.151c.088-.175.175-.175.35-.088a4.279,4.279,0,0,1,.963.613c.788.525,1.226,1.226.7,2.013v.088a1.1,1.1,0,0,1-1.226.525l-.175,1.751v.088C39.817,101.757,39.817,101.757,39.729,101.757Zm.788-2.976c.175-.263.088-.525-.35-.788-.088,0-.35-.175-.35-.263l-.613.875c.088,0,.263.175.35.263.438.35.7.263.963-.088Z" transform="translate(-29.405 -89.173)"/><path class="c" d="M43.045,103.661c-.175-.088-.438-.175-.963-.438-.613-.35-1.138-.788-.613-1.751l.875-1.663c.525-.875,1.138-.7,1.751-.35.525.263.788.438.875.613.088.088.088.088.088.175l-.263.438c0,.088-.088.088-.175.088l-.963-.525c-.263-.088-.35-.088-.525.175l-.263.438,1.313.7c.088,0,.088.088.088.175l-.263.438c0,.088-.088.088-.175,0l-1.313-.7-.263.525c-.175.263-.088.35.088.525l.963.525c.088,0,.088.088.088.175l-.263.438Z" transform="translate(-29.919 -89.501)"/><path class="c" d="M46.226,103.489a.669.669,0,0,0-.438-.175l-.525,1.226c0,.088-.088.088-.175.088l-.7-.263c-.088,0-.088-.088-.088-.175l1.488-3.414c.088-.175.175-.175.35-.175.263.088.7.263,1.05.35.788.35,1.4.963.963,1.926v.088C47.889,103.927,47.014,103.839,46.226,103.489Zm1.226-.963c.175-.35,0-.613-.438-.788-.088,0-.35-.175-.438-.175l-.438,1.05c.088,0,.35.175.438.175.438.175.7.175.875-.263Z" transform="translate(-30.299 -89.679)"/><path class="c" d="M51.476,106.99l-.788-.263c-.088,0-.088-.088-.088-.175l-.263-1.576h-.088a.664.664,0,0,1-.35-.175l-.438,1.313c0,.088-.088.088-.175.088l-.7-.263c-.088,0-.088-.088-.088-.175l1.138-3.589c.088-.175.175-.175.35-.175a9.76,9.76,0,0,1,1.138.263c.875.263,1.488.788,1.226,1.751v.088a1.328,1.328,0,0,1-1.05.875l.35,1.751v.088C51.564,106.99,51.476,106.99,51.476,106.99Zm-.088-3.151c.088-.35-.088-.525-.525-.7-.088,0-.35-.088-.438-.088l-.35,1.05c.088,0,.35.088.35.175.613.088.788,0,.963-.438Z" transform="translate(-30.822 -89.854)"/><path class="c" d="M55.192,107.867a3.081,3.081,0,0,1-1.05-.175c-.7-.175-1.313-.525-1.05-1.488l.438-1.838a1.121,1.121,0,0,1,1.576-.875,6.73,6.73,0,0,1,1.05.35c.088,0,.088.088.088.175l-.088.525c0,.088-.088.088-.175.088l-1.138-.263c-.263-.088-.35,0-.438.263l-.088.525,1.4.35c.088,0,.088.088.088.175l-.088.525c0,.088-.088.088-.175.088l-1.4-.35-.175.613c-.088.263,0,.35.263.438l1.138.263c.088,0,.088.088.088.175l-.088.525C55.28,107.867,55.28,107.867,55.192,107.867Z" transform="translate(-31.386 -90.03)"/><path class="c" d="M59.789,108.565l-.525-.088c-.088,0-.175-.088-.263-.175l-.963-2.364a.086.086,0,0,0-.088-.088h0l-.263,2.276a.086.086,0,0,1-.088.088l-.613-.088a.086.086,0,0,1-.088-.088l.525-3.764c0-.088.088-.175.263-.175l.525.088a.188.188,0,0,1,.175.175l1.05,2.451v0l.263-2.364a.086.086,0,0,1,.088-.088l.613.088a.086.086,0,0,1,.088.088l-.525,3.852A.188.188,0,0,1,59.789,108.565Z" transform="translate(-31.869 -90.115)"/><path class="c" d="M64.064,108.8a3.958,3.958,0,0,1-1.05,0c-.7,0-1.313-.263-1.313-1.226l.088-1.838c0-1.05.7-1.138,1.4-1.138a9.217,9.217,0,0,1,1.05.088c.088,0,.088,0,.088.088v.525a.086.086,0,0,1-.088.088H63.1c-.263,0-.35.088-.35.35v.525l1.488.088a.086.086,0,0,1,.088.088v.525a.086.086,0,0,1-.088.088l-1.488-.088v.613c0,.263.088.35.35.35h1.138a.086.086,0,0,1,.088.088v.525C64.151,108.714,64.151,108.8,64.064,108.8Z" transform="translate(-32.467 -90.178)"/><path class="c" d="M67.138,108.714a1.352,1.352,0,0,1-1.663-1.488l-.175-2.451c0-.088,0-.088.088-.088h.7c.088,0,.088,0,.088.088l.175,2.451c0,.613.175.788.7.788s.613-.263.613-.875l-.175-2.451c0-.088,0-.088.088-.088h.7c.088,0,.088,0,.088.088l.175,2.451C68.714,108.364,68.014,108.714,67.138,108.714Z" transform="translate(-32.915 -90.178)"/><path class="c" d="M73.377,107.945l-.875.175c-.088,0-.088,0-.088-.088l-.963-1.313h-.088a.952.952,0,0,0-.438.088l.263,1.4c0,.088,0,.088-.088.088l-.7.088c-.088,0-.088,0-.088-.088l-.613-3.677c0-.175,0-.263.175-.263a11.421,11.421,0,0,1,1.138-.263c.963-.175,1.751.088,1.838,1.05v.088a1.192,1.192,0,0,1-.525,1.226l1.05,1.4c.088-.088.088,0,0,.088C73.464,107.857,73.464,107.945,73.377,107.945Zm-1.4-2.714c-.088-.35-.35-.438-.788-.35-.088,0-.35.088-.438.088l.175,1.05c.088,0,.35,0,.438-.088.525-.088.7-.263.613-.7Z" transform="translate(-33.463 -90.108)"/><path class="c" d="M75.663,107.427l-.7.175c-.088,0-.088,0-.088-.088L74,103.663c0-.088,0-.088.088-.088l.7-.175c.088,0,.088,0,.088.088l.875,3.852Z" transform="translate(-33.999 -90.028)"/><path class="c" d="M79.977,106.092l-.788.263c-.088,0-.088,0-.175-.088l-.438-.788-1.138.35.088.963c0,.088,0,.088-.088.088l-.788.263c-.088,0-.088,0-.088-.088h0l-.263-3.589a.865.865,0,0,1,.7-.875c.35-.088.788-.175,1.05.35L79.889,106h0C80.064,106.092,80.064,106.092,79.977,106.092Zm-2.539-2.626a.086.086,0,0,0-.088-.088l-.088.088.175,1.576.788-.263Z" transform="translate(-34.286 -89.919)"/><path class="c" d="M83.077,104.827a7.891,7.891,0,0,0-.788.438c-.7.263-1.313.35-1.751-.613L79.4,101.938c0-.088,0-.088.088-.175l.7-.263c.088,0,.088,0,.175.088L81.5,104.3c.088.263.263.35.438.175l.875-.35c.088,0,.088,0,.175.088l.175.525A.086.086,0,0,1,83.077,104.827Z" transform="translate(-34.672 -89.791)"/><path class="c" d="M86.893,103.014a8.531,8.531,0,0,1-.963.438h-.175l-.263-.438v-.175h0c.175-.088.788-.35.963-.438.35-.175.35-.35.263-.613-.088-.175-.175-.175-.525-.175h-.875A1.256,1.256,0,0,1,84.179,101c-.263-.525-.263-1.138.7-1.663a3.75,3.75,0,0,1,1.138-.438c.088,0,.088,0,.088.088l.263.525V99.6h0l-1.05.525c-.263.175-.35.263-.263.438s.175.175.525.175h.788a1.308,1.308,0,0,1,1.226.613C87.855,101.7,87.855,102.4,86.893,103.014Z" transform="translate(-35.249 -89.467)"/><path class="c" d="M89.643,99.543c-.088.088-.263.175-.35.263l.788,1.138v.175l-.613.438h-.175l-2.1-3.064c-.088-.175-.088-.263.088-.35a10.054,10.054,0,0,1,.875-.7c.7-.438,1.576-.7,2.189.175h0C90.869,98.318,90.343,99.106,89.643,99.543Zm-.175-1.576c-.263-.35-.525-.35-.875-.088a3.49,3.49,0,0,1-.35.263l.613.963c.088,0,.35-.175.35-.263a.568.568,0,0,0,.263-.875Z" transform="translate(-35.635 -89.235)"/><path class="c" d="M93.539,98.539l-.613.438h-.175L90.3,95.913v-.175l.613-.438h.175l2.451,3.064Z" transform="translate(-36.03 -89.019)"/><path class="c" d="M96.881,95.454l-.613.613h-.175L94.6,95.541v.088c-.088.088-.263.175-.263.263l.963,1.05v.175l-.7.438h-.175l-2.539-2.8c-.088-.175-.088-.263,0-.35l.788-.788c.7-.613,1.488-.875,2.1-.175l.088.088a1.1,1.1,0,0,1,.263,1.313l1.663.613Zm-2.714-1.4c-.263-.263-.525-.175-.875.088l-.35.35.7.788a.4.4,0,0,0,.263-.263c.525-.438.525-.613.263-.963Z" transform="translate(-36.22 -88.735)"/><path class="c" d="M98.38,93.98l-.525.525c0,.088-.088,0-.175,0l-2.889-2.714c-.088,0-.088-.088,0-.175l.525-.525c0-.088.088-.088.175,0L98.38,93.8Z" transform="translate(-36.581 -88.486)"/><path class="c" d="M98.354,88.628l-.613.7,2.539,2.1c.088,0,.088.088,0,.175l-.438.525c0,.088-.088.088-.175,0l-2.539-2.1-.613.7c0,.088-.088.088-.175,0l-.35-.263c-.088,0-.088-.088,0-.175l1.751-2.1c0-.088.088-.088.175,0l.438.35Z" transform="translate(-36.731 -88.125)"/></g></g><g transform="translate(94.026 35.024)"><path class="d" d="M113.652,42.092l-1.226-2.539a.657.657,0,0,0-1.138,0l-1.226,2.539a.582.582,0,0,1-.438.35l-2.8.438a.619.619,0,0,0-.35,1.05l2.013,2.013a.643.643,0,0,1,.175.525l-.525,2.8a.58.58,0,0,0,.875.613l2.539-1.313a.748.748,0,0,1,.613,0l2.539,1.313a.6.6,0,0,0,.875-.613l-.438-2.8c0-.175,0-.438.175-.525l2.013-2.013a.619.619,0,0,0-.35-1.05l-2.8-.438A.8.8,0,0,1,113.652,42.092Z" transform="translate(-105.686 -38.59)"/><path class="b" d="M114.879,50.406a1.244,1.244,0,0,1-.525-.175l-2.539-1.313h0l-2.539,1.313a1.4,1.4,0,0,1-1.313-.088A1.14,1.14,0,0,1,107.526,49l.525-2.8h0l-2.1-2.013a1.084,1.084,0,0,1-.263-1.226,1.115,1.115,0,0,1,.963-.788l2.8-.438h0l1.226-2.539a1.138,1.138,0,0,1,1.05-.7h0a1.138,1.138,0,0,1,1.05.7L114,41.739h0l2.8.438a1.262,1.262,0,0,1,.963.788,1.122,1.122,0,0,1-.35,1.226L115.4,46.2h0l.438,2.8a1.14,1.14,0,0,1-.438,1.138A.624.624,0,0,1,114.879,50.406Zm-3.151-2.626a1.244,1.244,0,0,1,.525.175l2.539,1.313h0l-.438-2.8a1.2,1.2,0,0,1,.35-1.05l2.013-2.013h0l-2.8-.438a1.163,1.163,0,0,1-.875-.7h0l-1.226-2.539h0l-1.226,2.539a1.391,1.391,0,0,1-.875.7l-2.8.438h0l2.013,2.013a1.2,1.2,0,0,1,.35,1.05l-.525,2.8h0l2.539-1.313C111.378,47.779,111.553,47.779,111.728,47.779Z" transform="translate(-105.6 -38.5)"/></g><g transform="translate(86.76 21.368)"><path class="d" d="M105.352,26.492l-1.226-2.539a.657.657,0,0,0-1.138,0l-1.226,2.539a.582.582,0,0,1-.438.35l-2.8.438a.619.619,0,0,0-.35,1.05l2.013,2.013a.643.643,0,0,1,.175.525l-.525,2.8a.58.58,0,0,0,.875.613l2.539-1.313a.748.748,0,0,1,.613,0l2.539,1.313a.6.6,0,0,0,.875-.613l-.438-2.8c0-.175,0-.438.175-.525l2.013-2.013a.619.619,0,0,0-.35-1.05l-2.8-.438A.8.8,0,0,1,105.352,26.492Z" transform="translate(-97.386 -22.99)"/><path class="b" d="M106.492,34.806a1.244,1.244,0,0,1-.525-.175l-2.539-1.313h0l-2.539,1.313a1.4,1.4,0,0,1-1.313-.088,1.14,1.14,0,0,1-.438-1.138l.525-2.8h0L97.65,28.59a1.084,1.084,0,0,1-.263-1.226,1.115,1.115,0,0,1,.963-.788l2.8-.438h0l1.226-2.539a1.138,1.138,0,0,1,1.05-.7h0a1.138,1.138,0,0,1,1.05.7l1.226,2.539h0l2.8.438a1.262,1.262,0,0,1,.963.788,1.122,1.122,0,0,1-.35,1.226L107.1,30.6h0l.438,2.8a1.14,1.14,0,0,1-.438,1.138A.681.681,0,0,1,106.492,34.806Zm-3.064-2.626a1.244,1.244,0,0,1,.525.175l2.539,1.313h0l-.438-2.8a1.2,1.2,0,0,1,.35-1.05l2.013-2.013h0l-2.8-.438a1.163,1.163,0,0,1-.875-.7h0l-1.226-2.539h0l-1.226,2.539a1.391,1.391,0,0,1-.875.7l-2.8.438h0l2.013,2.013a1.2,1.2,0,0,1,.35,1.05l-.525,2.8h0l2.539-1.313C102.99,32.267,103.253,32.179,103.428,32.179Z" transform="translate(-97.3 -22.9)"/></g><g transform="translate(33.885 31.522)"><g transform="translate(10.242 10.33)"><path class="c" d="M76.351,58.468A14.119,14.119,0,0,0,64.095,46.388a9.515,9.515,0,0,0-1.576-.088A13.9,13.9,0,0,0,48.6,60.219a14.073,14.073,0,0,0,6.828,11.993c.088.088.175.088.175.175l.963,3.064a2.075,2.075,0,0,0,2.013,1.488h7.879a2.156,2.156,0,0,0,2.013-1.488l.963-3.064a.188.188,0,0,1,.175-.175A13.642,13.642,0,0,0,76.351,58.468Z" transform="translate(-48.6 -46.3)"/></g><g transform="translate(19.259 42.545)"><path class="b" d="M59.688,84.676a.788.788,0,1,1,0-1.576h8.4a.788.788,0,0,1,0,1.576Z" transform="translate(-58.9 -83.1)"/></g><g transform="translate(19.959 44.996)"><path class="b" d="M60.488,87.476a.788.788,0,0,1,0-1.576h7.091a.788.788,0,0,1,0,1.576Z" transform="translate(-59.7 -85.9)"/></g><g transform="translate(21.097 47.535)"><path class="b" d="M61.788,90.376a.788.788,0,1,1,0-1.576h4.727a.788.788,0,0,1,0,1.576Z" transform="translate(-61 -88.8)"/></g><g transform="translate(42.107 23.198)"><path class="b" d="M85.788,62.576a.788.788,0,0,1,0-1.576h4.727a.788.788,0,0,1,0,1.576Z" transform="translate(-85 -61)"/></g><g transform="translate(0 23.198)"><path class="b" d="M37.688,62.576a.788.788,0,0,1,0-1.576h4.727a.788.788,0,1,1,0,1.576Z" transform="translate(-36.9 -61)"/></g><g transform="translate(23.549 0)"><path class="b" d="M64.588,40.8a.785.785,0,0,1-.788-.788V35.288a.785.785,0,0,1,.788-.788h0a.785.785,0,0,1,.788.788v4.727c-.088.438-.35.788-.788.788Z" transform="translate(-63.8 -34.5)"/></g><g transform="translate(38.321 7.682)"><path class="b" d="M81.4,48.112a.757.757,0,0,1-.525-.263.8.8,0,0,1,0-1.05L84.2,43.472a.743.743,0,0,1,1.05,1.05l-3.327,3.327A.529.529,0,0,1,81.4,48.112Z" transform="translate(-80.675 -43.275)"/></g><g transform="translate(5.493 7.594)"><path class="b" d="M47.224,48.012a.757.757,0,0,1-.525-.263l-3.327-3.327a.743.743,0,0,1,1.05-1.05L47.749,46.7a.8.8,0,0,1,0,1.05A.757.757,0,0,1,47.224,48.012Z" transform="translate(-43.175 -43.175)"/></g><g transform="translate(10.33 10.33)"><path class="d" d="M62.619,48.226a8.011,8.011,0,0,1,1.4.088,11.972,11.972,0,0,1,4.815,22.148h-.175a2.264,2.264,0,0,0-.963,1.226l-.963,2.976a.188.188,0,0,1-.175.175H58.68a.171.171,0,0,1-.175-.175L57.542,71.6a2.181,2.181,0,0,0-.963-1.226h0a12.2,12.2,0,0,1-5.865-10.33A11.788,11.788,0,0,1,62.619,48.226h0m0-1.926h0A13.9,13.9,0,0,0,48.7,60.219a14.073,14.073,0,0,0,6.828,11.993c.088.088.175.088.175.175l.963,3.064a2.075,2.075,0,0,0,2.013,1.488h7.879a2.156,2.156,0,0,0,2.013-1.488l.963-3.064a.188.188,0,0,1,.175-.175,13.946,13.946,0,0,0,6.653-13.744A14.119,14.119,0,0,0,64.107,46.388a8.01,8.01,0,0,0-1.488-.088Z" transform="translate(-48.7 -46.3)"/></g><g transform="translate(9.63 9.717)"><path class="b" d="M58.58,77.465a2.732,2.732,0,0,1-2.626-1.926l-.963-2.976A14.549,14.549,0,0,1,47.9,60.132,14.161,14.161,0,0,1,52.19,49.89a14.569,14.569,0,0,1,10.33-4.29,10.594,10.594,0,0,1,1.663.088A14.581,14.581,0,0,1,70.048,72.65l-.963,2.889a2.814,2.814,0,0,1-2.626,1.926Zm3.939-30.552a13.479,13.479,0,0,0-9.367,3.852,13.269,13.269,0,0,0,2.626,20.747,1.382,1.382,0,0,1,.438.525l.963,3.064a1.5,1.5,0,0,0,1.4,1.05h7.879a1.5,1.5,0,0,0,1.4-1.05l.963-3.064a.684.684,0,0,1,.438-.525,13.357,13.357,0,0,0,6.391-13.131h0A13.466,13.466,0,0,0,64.008,46.913Z" transform="translate(-47.9 -45.6)"/></g><g transform="translate(23.461 19.368)"><path class="b" d="M68.69,78.576a.785.785,0,0,1-.788-.788V64.482H64.488a.788.788,0,0,1,0-1.576H67.9V60.192a3.576,3.576,0,0,1,1.576-3.239,2.618,2.618,0,0,1,2.539,0,3.493,3.493,0,0,1,1.576,3.239c0,1.576-.175,3.151-1.926,3.764a10.647,10.647,0,0,1-2.189.438V77.788a.785.785,0,0,1-.788.788Zm2.013-20.4a1.244,1.244,0,0,0-.525.175c-.525.263-.788.963-.788,1.926v2.626c.7-.088,1.226-.175,1.663-.263.7-.263.963-.613.963-2.364,0-.963-.263-1.663-.788-1.926A.643.643,0,0,0,70.7,58.179Z" transform="translate(-63.7 -56.625)"/></g><g transform="translate(15.757 19.368)"><path class="b" d="M59.8,78.576a.785.785,0,0,1-.788-.788V64.394c-3.151-.263-4.114-1.138-4.114-4.2a3.576,3.576,0,0,1,1.576-3.239,2.618,2.618,0,0,1,2.539,0,3.68,3.68,0,0,1,1.576,3.239v2.714H64v1.488H60.59V77.7a.808.808,0,0,1-.788.875Zm-2.013-20.4a1.244,1.244,0,0,0-.525.175,2.113,2.113,0,0,0-.788,1.926c0,1.838,0,2.451,2.626,2.626V60.28c0-.963-.263-1.663-.788-1.926A.643.643,0,0,0,57.789,58.179Z" transform="translate(-54.9 -56.625)"/></g></g></g></svg>