<svg xmlns="http://www.w3.org/2000/svg" viewBox="-16983 -13294.067 94 90.868">
  <defs>
    <style>
      .cls-1 {
        fill: #04abcd;
      }

      .cls-2 {
        fill: #025b6b;
      }

      .cls-3 {
        fill: #fff;
      }

      .cls-4 {
        fill: #176681;
      }

      .cls-5 {
        fill: #ffcc04;
      }
    </style>
  </defs>
  <g id="DigitaleGeletterheid2" transform="translate(-16995.9 -13304.867)">
    <g id="Group_66" data-name="Group 66" transform="translate(15.176 13.076)">
      <circle id="Ellipse_49" data-name="Ellipse 49" class="cls-1" cx="43.158" cy="43.158" r="43.158"/>
    </g>
    <g id="Group_67" data-name="Group 67" transform="translate(15.176 13.076)">
      <path id="Path_393" data-name="Path 393" class="cls-2" d="M58.658,14.626A41.932,41.932,0,1,1,16.726,56.558,41.993,41.993,0,0,1,58.658,14.626m0-1.226a43.158,43.158,0,1,0,43.158,43.158A43.189,43.189,0,0,0,58.658,13.4Z" transform="translate(-15.5 -13.4)"/>
    </g>
    <g id="Group_68" data-name="Group 68" transform="translate(12.9 10.8)">
      <path id="Path_394" data-name="Path 394" class="cls-2" d="M58.334,13.076a43.158,43.158,0,1,1-43.07,43.158,43.189,43.189,0,0,1,43.07-43.158m0-2.276a45.434,45.434,0,1,0,45.434,45.434A45.505,45.505,0,0,0,58.334,10.8Z" transform="translate(-12.9 -10.8)"/>
    </g>
    <g id="Group_69" data-name="Group 69" transform="translate(14.038 11.938)">
      <path id="Path_395" data-name="Path 395" class="cls-3" d="M58.5,13.238A43.158,43.158,0,1,1,15.426,56.4,43.189,43.189,0,0,1,58.5,13.238m0-1.138a44.3,44.3,0,1,0,44.3,44.3A44.347,44.347,0,0,0,58.5,12.1Z" transform="translate(-14.2 -12.1)"/>
    </g>
    <g id="Group_70" data-name="Group 70" transform="translate(25.418 23.318)">
      <circle id="Ellipse_50" data-name="Ellipse 50" class="cls-1" cx="32.915" cy="32.915" r="32.915" transform="translate(0 0)"/>
    </g>
    <g id="Group_71" data-name="Group 71" transform="translate(47.654 46.779)">
      <rect id="Rectangle_936" data-name="Rectangle 936" class="cls-3" width="21.36" height="41.582"/>
    </g>
    <g id="Group_72" data-name="Group 72" transform="translate(51.243 35.224)">
      <rect id="Rectangle_937" data-name="Rectangle 937" class="cls-3" width="14.269" height="9.454"/>
    </g>
    <g id="Group_73" data-name="Group 73" transform="translate(47.654 46.779)">
      <path id="Path_396" data-name="Path 396" class="cls-1" d="M71.772,54.176V93.832l2.276-.788V51.9H52.6V92.869l2.276.963V54.176h16.9" transform="translate(-52.6 -51.9)"/>
    </g>
    <g id="Group_74" data-name="Group 74" transform="translate(47.129 46.254)">
      <path id="Path_397" data-name="Path 397" class="cls-2" d="M74.411,91.656H73.36V52.35H53.138V91.656H52V51.3H74.411Z" transform="translate(-52 -51.3)"/>
    </g>
    <g id="Group_75" data-name="Group 75" transform="translate(52.731 38.463)">
      <path id="Path_398" data-name="Path 398" class="cls-1" d="M63.39,45.464H58.4V42.4h4.99ZM59.45,44.326h2.889v-.963H59.45Z" transform="translate(-58.4 -42.4)"/>
    </g>
    <g id="Group_76" data-name="Group 76" transform="translate(59.034 38.463)">
      <path id="Path_399" data-name="Path 399" class="cls-1" d="M70.59,45.464H65.6V42.4h4.99ZM66.65,44.326h2.889v-.963H66.65Z" transform="translate(-65.6 -42.4)"/>
    </g>
    <g id="Group_77" data-name="Group 77" transform="translate(50.718 34.699)">
      <path id="Path_400" data-name="Path 400" class="cls-2" d="M71.42,48.6H56.1V38.1H71.42ZM57.15,47.554H70.369V39.238H57.15Z" transform="translate(-56.1 -38.1)"/>
    </g>
    <g id="Group_79" data-name="Group 79" transform="translate(57.809 55.709)">
      <g id="Group_78" data-name="Group 78" transform="translate(0)">
        <rect id="Rectangle_938" data-name="Rectangle 938" class="cls-4" width="1.05" height="18.559"/>
      </g>
    </g>
    <g id="Group_82" data-name="Group 82" transform="translate(56.496 52.995)">
      <g id="Group_81" data-name="Group 81" transform="translate(0)">
        <g id="Group_80" data-name="Group 80">
          <path id="Path_401" data-name="Path 401" class="cls-1" d="M62.7,62.239,64.538,59l1.838,3.239Z" transform="translate(-62.7 -59)"/>
        </g>
      </g>
    </g>
    <g id="Group_85" data-name="Group 85" transform="translate(56.145 72.079)">
      <g id="Group_84" data-name="Group 84">
        <g id="Group_83" data-name="Group 83">
          <circle id="Ellipse_51" data-name="Ellipse 51" class="cls-1" cx="2.189" cy="2.189" r="2.189"/>
        </g>
      </g>
    </g>
    <g id="Group_87" data-name="Group 87" transform="translate(58.334 58.773)">
      <g id="Group_86" data-name="Group 86" transform="translate(0)">
        <path id="Path_402" data-name="Path 402" class="cls-4" d="M64.8,73.129v-1.05c3.414,0,3.677-2.451,3.677-6.478h1.05A15.088,15.088,0,0,1,69,70.59C68.3,72.341,66.989,73.129,64.8,73.129Z" transform="translate(-64.8 -65.6)"/>
      </g>
    </g>
    <g id="Group_90" data-name="Group 90" transform="translate(61.31 57.635)">
      <g id="Group_89" data-name="Group 89">
        <g id="Group_88" data-name="Group 88">
          <rect id="Rectangle_939" data-name="Rectangle 939" class="cls-1" width="2.451" height="2.451"/>
        </g>
      </g>
    </g>
    <g id="Group_92" data-name="Group 92" transform="translate(53.607 62.274)">
      <g id="Group_91" data-name="Group 91" transform="translate(0)">
        <path id="Path_403" data-name="Path 403" class="cls-4" d="M64.127,77.129c-2.1,0-3.5-.788-4.2-2.539A15.088,15.088,0,0,1,59.4,69.6h1.05c0,4.027.263,6.478,3.677,6.478Z" transform="translate(-59.4 -69.6)"/>
      </g>
    </g>
    <g id="Group_95" data-name="Group 95" transform="translate(52.731 60.874)">
      <g id="Group_94" data-name="Group 94" transform="translate(0)">
        <g id="Group_93" data-name="Group 93">
          <circle id="Ellipse_52" data-name="Ellipse 52" class="cls-1" cx="1.401" cy="1.401" r="1.401"/>
        </g>
      </g>
    </g>
    <g id="Group_96" data-name="Group 96" transform="translate(47.654 78.82)">
      <rect id="Rectangle_940" data-name="Rectangle 940" class="cls-2" width="21.36" height="1.05"/>
    </g>
    <g id="Group_97" data-name="Group 97" transform="translate(25.418 23.318)">
      <path id="Path_404" data-name="Path 404" class="cls-2" d="M60.115,26.326a31.69,31.69,0,1,1-31.69,31.69,31.738,31.738,0,0,1,31.69-31.69m0-1.226A32.915,32.915,0,1,0,93.031,58.015,32.877,32.877,0,0,0,60.115,25.1Z" transform="translate(-27.2 -25.1)"/>
    </g>
    <g id="Group_98" data-name="Group 98" transform="translate(23.055 20.955)">
      <path id="Path_405" data-name="Path 405" class="cls-2" d="M59.779,24.764A32.915,32.915,0,1,1,26.864,57.679,32.877,32.877,0,0,1,59.779,24.764m0-2.364A35.279,35.279,0,1,0,95.058,57.679,35.343,35.343,0,0,0,59.779,22.4Z" transform="translate(-24.5 -22.4)"/>
    </g>
    <g id="Group_99" data-name="Group 99" transform="translate(24.28 22.18)">
      <path id="Path_406" data-name="Path 406" class="cls-3" d="M59.954,24.938A32.915,32.915,0,1,1,27.038,57.854,32.877,32.877,0,0,1,59.954,24.938m0-1.138A34.054,34.054,0,1,0,94.007,57.854,34.092,34.092,0,0,0,59.954,23.8Z" transform="translate(-25.9 -23.8)"/>
    </g>
    <g id="Group_100" data-name="Group 100" transform="translate(49.58 15.702)">
      <path id="Path_407" data-name="Path 407" class="cls-3" d="M56.288,21.077l-.7.175c-.088,0-.088,0-.088-.088l-.7-3.5c0-.088,0-.088.088-.088l.7-.175c.088,0,.088,0,.088.088l.7,3.5A.086.086,0,0,0,56.288,21.077Z" transform="translate(-54.8 -16.525)"/>
      <path id="Path_408" data-name="Path 408" class="cls-3" d="M58.273,20.739a1.79,1.79,0,0,1-.963,0c-.088,0-.088,0-.088-.088l-.088-.525c0-.088,0-.088.088-.088h0c.175,0,.788-.088.963-.088.35-.088.438-.175.35-.438,0-.175-.088-.175-.35-.35L57.4,18.9a.893.893,0,0,1-.7-.875c-.088-.525.175-1.05,1.138-1.138a5.024,5.024,0,0,1,1.05-.088.086.086,0,0,1,.088.088l.088.525c0,.088,0,.088-.088.088h0c-.175,0-.7.088-1.05.088a.321.321,0,0,0-.35.35c0,.175.088.175.35.263l.7.263a.992.992,0,0,1,.788.875A1.188,1.188,0,0,1,58.273,20.739Z" transform="translate(-55.034 -16.45)"/>
      <path id="Path_409" data-name="Path 409" class="cls-3" d="M61.513,20.364a2.994,2.994,0,0,1-.963-.088c-.088,0-.088,0-.088-.088v-.525c0-.088,0-.088.088-.088h.963c.35,0,.438-.175.438-.35s-.088-.263-.35-.35l-.7-.35a1.114,1.114,0,0,1-.7-.875c0-.525.263-.963,1.226-1.05h1.05a.086.086,0,0,1,.088.088v.525c0,.088,0,.088-.088.088h-1.05c-.263,0-.35.088-.35.263s.088.175.35.35l.7.263a1.225,1.225,0,0,1,.788.963A1.352,1.352,0,0,1,61.513,20.364Z" transform="translate(-55.473 -16.425)"/>
      <path id="Path_410" data-name="Path 410" class="cls-3" d="M65.3,20.252c-.788,0-1.4-.35-1.4-1.488V16.488a.086.086,0,0,1,.088-.088h.7c.088,0,.088,0,.088.088v2.276c0,.525.088.7.613.7.438,0,.613-.175.613-.7V16.488a.086.086,0,0,1,.088-.088H66.7c.088,0,.088,0,.088.088v2.276C66.7,19.989,66.089,20.252,65.3,20.252Z" transform="translate(-55.934 -16.4)"/>
      <path id="Path_411" data-name="Path 411" class="cls-3" d="M70,20.449h-.963c-.613-.088-1.226-.263-1.138-1.226l.175-1.663a1.015,1.015,0,0,1,1.313-.963,4.756,4.756,0,0,1,.963.175.086.086,0,0,1,.088.088l-.088.438a.086.086,0,0,1-.088.088l-1.05-.088c-.263,0-.35.088-.35.35v.525l1.313.175a.086.086,0,0,1,.088.088l-.088.438a.086.086,0,0,1-.088.088l-1.226-.175-.088.525c0,.263.088.35.263.35l1.05.088a.086.086,0,0,1,.088.088l-.088.438C70.087,20.449,70.087,20.449,70,20.449Z" transform="translate(-56.431 -16.422)"/>
      <path id="Path_412" data-name="Path 412" class="cls-3" d="M73.814,21.127l-.788-.175a.086.086,0,0,1-.088-.088l-.438-1.4h-.088c-.088,0-.263-.088-.35-.088l-.175,1.313a.086.086,0,0,1-.088.088l-.613-.088A.086.086,0,0,1,71.1,20.6l.613-3.327c0-.175.088-.175.263-.175.263,0,.7.088,1.05.088.875.175,1.4.525,1.226,1.4v.088a1.032,1.032,0,0,1-.788.875l.525,1.488c-.088,0-.088.088-.175.088C73.9,21.127,73.9,21.214,73.814,21.127Zm-.438-2.714c.088-.263-.175-.525-.525-.525a1.986,1.986,0,0,1-.35-.088l-.263.963c.088,0,.263.088.35.088.525.088.788,0,.788-.438Z" transform="translate(-56.831 -16.487)"/>
    </g>
    <g id="Group_101" data-name="Group 101" transform="translate(35.42 86.37)">
      <path id="Path_413" data-name="Path 413" class="cls-3" d="M39.654,101.7c-.35-.263-.788-.525-.963-.7a.164.164,0,0,1,0-.263l1.926-3.151a.322.322,0,0,1,.263-.088l1.05.525a1.621,1.621,0,0,1,.613,2.451l-.35.613A1.668,1.668,0,0,1,39.654,101.7Zm2.013-1.663c.438-.613.263-.963-.175-1.226a.664.664,0,0,0-.35-.175l-1.4,2.189a1.208,1.208,0,0,0,.35.263c.438.263.788.263,1.226-.35Z" transform="translate(-38.625 -97.172)"/>
      <path id="Path_414" data-name="Path 414" class="cls-3" d="M43.191,103.714l-.7-.35c-.088,0-.088-.088,0-.175l1.838-3.5c0-.088.088-.088.175-.088l.7.35c.088,0,.088.088.088.175l-1.838,3.5C43.279,103.714,43.279,103.714,43.191,103.714Z" transform="translate(-39.098 -97.433)"/>
      <path id="Path_415" data-name="Path 415" class="cls-3" d="M48.305,102.5h0c-.263-.088-.613-.35-1.05-.525s-.788-.088-1.05.613l-.263.613c-.35.7-.088,1.05.175,1.138.175.088.263.088.438.175l.525-1.138c0-.088.088-.088.175-.088l.613.263c.088,0,.088.088.088.175l-.788,1.751c0,.088-.088.088-.175.088a7.16,7.16,0,0,1-1.226-.438,1.521,1.521,0,0,1-.7-2.276l.263-.613a1.57,1.57,0,0,1,2.276-.963,4.688,4.688,0,0,1,1.05.613.086.086,0,0,1,.088.088l-.263.525Z" transform="translate(-39.398 -97.617)"/>
      <path id="Path_416" data-name="Path 416" class="cls-3" d="M49.188,106.3l-.7-.263c-.088,0-.088-.088-.088-.175l1.313-3.677a.086.086,0,0,1,.088-.088l.7.263c.088,0,.088.088.088.175l-1.4,3.764Z" transform="translate(-39.843 -97.745)"/>
      <path id="Path_417" data-name="Path 417" class="cls-3" d="M54,104.176l-.875-.263-.875,3.151c0,.088-.088.088-.175.088l-.7-.175c-.088,0-.088-.088-.088-.175l.875-3.151-.875-.263c-.088,0-.088-.088-.088-.175l.175-.525c0-.088.088-.088.175-.088l2.714.788c.088,0,.088.088.088.175l-.175.525C54.176,104.176,54.089,104.176,54,104.176Z" transform="translate(-40.192 -97.807)"/>
      <path id="Path_418" data-name="Path 418" class="cls-3" d="M56.927,108.358l-.788-.175a.086.086,0,0,1-.088-.088v-.963l-1.138-.263-.35.875a.086.086,0,0,1-.088.088l-.788-.175a.086.086,0,0,1-.088-.088h0l1.488-3.239c.263-.525.613-.525,1.05-.438.35.088.788.263.788.788l.088,3.589h0A.086.086,0,0,1,56.927,108.358Zm-.875-3.589h0c-.175-.088-.175-.088-.175,0l-.613,1.488.788.175Z" transform="translate(-40.491 -97.963)"/>
      <path id="Path_419" data-name="Path 419" class="cls-3" d="M60.5,108.69h-.875c-.7-.088-1.313-.35-1.226-1.313l.35-2.889a.086.086,0,0,1,.088-.088l.7.088a.086.086,0,0,1,.088.088l-.35,2.889c0,.263.088.35.35.438l.963.088a.086.086,0,0,1,.088.088l-.088.525C60.587,108.69,60.587,108.69,60.5,108.69Z" transform="translate(-41.088 -98.031)"/>
      <path id="Path_420" data-name="Path 420" class="cls-3" d="M65.787,108.914c-.175,0-.613.088-.875.088-.7,0-1.4-.175-1.313-1.226l.088-2.889a.086.086,0,0,1,.088-.088h.7a.086.086,0,0,1,.088.088l-.088,2.889c0,.263.088.35.35.35h.963a.086.086,0,0,1,.088.088v.525C65.875,108.914,65.875,108.914,65.787,108.914Z" transform="translate(-41.736 -98.081)"/>
      <path id="Path_421" data-name="Path 421" class="cls-3" d="M67.838,108.814H67.05a.086.086,0,0,1-.088-.088l-.263-3.939c0-.088,0-.088.088-.088h.788c.088,0,.088,0,.088.088l.175,4.027Z" transform="translate(-42.123 -98.069)"/>
      <path id="Path_422" data-name="Path 422" class="cls-3" d="M71.3,104.975l-.875.088.438,3.239c0,.088,0,.088-.088.088l-.7.088c-.088,0-.088,0-.088-.088l-.438-3.239-.875.088c-.088,0-.088,0-.088-.088l-.088-.613c0-.088,0-.088.088-.088l2.714-.35c.088,0,.088,0,.088.088l.088.613C71.389,104.975,71.389,104.975,71.3,104.975Z" transform="translate(-42.347 -97.994)"/>
      <path id="Path_423" data-name="Path 423" class="cls-3" d="M75.272,107.614a3.387,3.387,0,0,1-1.05.263c-.7.175-1.4.088-1.576-.875l-.35-1.838c-.175-.963.35-1.313,1.05-1.488.613-.088.875-.175,1.05-.175.088,0,.088,0,.175.088l.088.525c0,.088,0,.088-.088.175l-1.138.263c-.263.088-.35.175-.263.438l.088.525,1.4-.263c.088,0,.088,0,.175.088l.088.525c0,.088,0,.088-.088.175l-1.4.263.088.613c.088.263.175.35.438.263l1.138-.263c.088,0,.088,0,.175.088l.088.525A.086.086,0,0,1,75.272,107.614Z" transform="translate(-42.816 -97.919)"/>
      <path id="Path_424" data-name="Path 424" class="cls-3" d="M79.7,106.371l-.788.263c-.088,0-.088,0-.175-.088L77.6,105.408h-.088c-.088,0-.263.088-.35.088l.438,1.4c0,.088,0,.088-.088.175l-.7.175c-.088,0-.088,0-.175-.088L75.5,103.57c-.088-.175,0-.263.175-.35a9.115,9.115,0,0,0,1.05-.438c.875-.263,1.663-.175,2.013.788v.088a1.174,1.174,0,0,1-.35,1.313L79.7,106.2v.088C79.785,106.371,79.785,106.371,79.7,106.371Zm-1.838-2.451c-.088-.35-.438-.438-.875-.263a.924.924,0,0,0-.438.175l.35,1.05a1.986,1.986,0,0,0,.35-.088c.613-.263.788-.438.613-.875Z" transform="translate(-43.214 -97.814)"/>
      <path id="Path_425" data-name="Path 425" class="cls-3" d="M84.062,104.706l-.7.263c-.088,0-.088,0-.175-.088l-.525-.788-1.05.438.175.963c0,.088,0,.088-.088.175l-.7.263c-.088,0-.088,0-.088-.088h0l-.613-3.5a.883.883,0,0,1,.613-.963c.35-.175.788-.263,1.05.175l2.1,2.889h0C84.15,104.619,84.15,104.619,84.062,104.706Zm-2.714-2.539c0-.088-.088-.088,0,0-.175-.088-.175,0,0,0l.175,1.576.788-.35Z" transform="translate(-43.815 -97.637)"/>
      <path id="Path_426" data-name="Path 426" class="cls-3" d="M87.288,102.989a3.3,3.3,0,0,1-.7.438,1.531,1.531,0,0,1-2.276-.788l-.35-.613a1.634,1.634,0,0,1,.613-2.364,2.577,2.577,0,0,1,.788-.263c.088,0,.088,0,.175.088l.263.438v.175h0c-.175.088-.438.175-.788.35s-.525.525-.175,1.138l.35.613c.35.7.7.7,1.05.525a8.074,8.074,0,0,1,.7-.438h0c.088,0,.088,0,.175.088l.263.438A.271.271,0,0,1,87.288,102.989Z" transform="translate(-44.24 -97.408)"/>
      <path id="Path_427" data-name="Path 427" class="cls-3" d="M88.9,97.191l.35,2.1a.491.491,0,0,1-.088.525l.875,1.313v.175l-.613.438h-.175l-.875-1.313a.643.643,0,0,1-.525-.175L86.1,99.117h0v-.088l.7-.438h.175l1.4.963c.088.088.088.088.088,0v-.088l-.35-1.663v-.175l.788-.438Z" transform="translate(-44.54 -97.125)"/>
    </g>
    <g id="Group_102" data-name="Group 102" transform="translate(95.182 35.596)">
      <path id="Path_428" data-name="Path 428" class="cls-5" d="M114.252,41.992l-1.226-2.539a.657.657,0,0,0-1.138,0l-1.226,2.539a.582.582,0,0,1-.438.35l-2.8.438a.619.619,0,0,0-.35,1.05l2.013,2.013a.643.643,0,0,1,.175.525l-.525,2.8a.58.58,0,0,0,.875.613l2.539-1.313a.748.748,0,0,1,.613,0l2.539,1.313a.6.6,0,0,0,.875-.613l-.438-2.8c0-.175,0-.438.175-.525l2.013-2.013a.619.619,0,0,0-.35-1.05l-2.8-.438A.591.591,0,0,1,114.252,41.992Z" transform="translate(-106.892 -39.125)"/>
    </g>
    <g id="Group_103" data-name="Group 103" transform="translate(94.663 35.049)">
      <path id="Path_429" data-name="Path 429" class="cls-2" d="M115.492,50.406a1.244,1.244,0,0,1-.525-.175l-2.539-1.313h0l-2.539,1.313a1.4,1.4,0,0,1-1.313-.088A1.14,1.14,0,0,1,108.138,49l.525-2.8h0L106.65,44.19a1.084,1.084,0,0,1-.263-1.226,1.115,1.115,0,0,1,.963-.788l2.8-.438h0l1.226-2.539a1.138,1.138,0,0,1,1.05-.7h0a1.138,1.138,0,0,1,1.05.7l1.226,2.539h0l2.8.438a1.262,1.262,0,0,1,.963.788,1.122,1.122,0,0,1-.35,1.226L116.1,46.2h0l.438,2.8a1.14,1.14,0,0,1-.438,1.138A.8.8,0,0,1,115.492,50.406Zm-3.151-2.714a1.244,1.244,0,0,1,.525.175L115.4,49.18h0l-.438-2.8a1.2,1.2,0,0,1,.35-1.05l2.1-2.013h0l-2.8-.438a1.163,1.163,0,0,1-.875-.7h0l-1.226-2.539h0l-1.226,2.539a1.391,1.391,0,0,1-.875.7l-2.8.438h0l2.013,2.013a1.2,1.2,0,0,1,.35,1.05l-.525,2.8h0l2.539-1.313C111.99,47.779,112.165,47.692,112.34,47.692Z" transform="translate(-106.3 -38.5)"/>
    </g>
    <g id="Group_104" data-name="Group 104" transform="translate(87.916 22.027)">
      <path id="Path_430" data-name="Path 430" class="cls-5" d="M105.952,26.492l-1.226-2.539a.657.657,0,0,0-1.138,0l-1.226,2.539a.582.582,0,0,1-.438.35l-2.8.438a.619.619,0,0,0-.35,1.05l2.013,2.013a.643.643,0,0,1,.175.525l-.525,2.8a.58.58,0,0,0,.875.613l2.539-1.313a.748.748,0,0,1,.613,0L107,34.283a.6.6,0,0,0,.875-.613l-.438-2.8c0-.175,0-.438.175-.525l2.013-2.013a.619.619,0,0,0-.35-1.05l-2.8-.438A.8.8,0,0,1,105.952,26.492Z" transform="translate(-98.592 -23.625)"/>
    </g>
    <g id="Group_105" data-name="Group 105" transform="translate(87.31 21.392)">
      <path id="Path_431" data-name="Path 431" class="cls-2" d="M107.092,34.806a1.244,1.244,0,0,1-.525-.175l-2.539-1.313h0l-2.539,1.313a1.4,1.4,0,0,1-1.313-.088,1.14,1.14,0,0,1-.438-1.138l.525-2.8h0L98.25,28.59a1.084,1.084,0,0,1-.263-1.226,1.115,1.115,0,0,1,.963-.788l2.8-.438h0l1.226-2.539a1.138,1.138,0,0,1,1.05-.7h0a1.138,1.138,0,0,1,1.05.7l1.226,2.539h0l2.8.438a1.262,1.262,0,0,1,.963.788,1.122,1.122,0,0,1-.35,1.226L107.7,30.6h0l.438,2.8a1.14,1.14,0,0,1-.438,1.138A.681.681,0,0,1,107.092,34.806Zm-3.064-2.626a1.244,1.244,0,0,1,.525.175l2.539,1.313h0l-.438-2.8a1.2,1.2,0,0,1,.35-1.05l2.013-2.013h0l-2.8-.438a1.163,1.163,0,0,1-.875-.7h0l-1.226-2.539h0l-1.226,2.539a1.391,1.391,0,0,1-.875.7l-2.8.438h0l2.013,2.013a1.2,1.2,0,0,1,.35,1.05l-.525,2.8h0l2.539-1.313C103.678,32.179,103.853,32.179,104.028,32.179Z" transform="translate(-97.9 -22.9)"/>
    </g>
  </g>
</svg>
